<?xml version="1.0" encoding="utf-8"?>
<!-- Generator: Adobe Illustrator 26.4.1, SVG Export Plug-In . SVG Version: 6.00 Build 0)  -->
<svg version="1.1" id="Illustration" xmlns="http://www.w3.org/2000/svg" xmlns:xlink="http://www.w3.org/1999/xlink" x="0px"
	 y="0px" viewBox="0 0 600 600" style="enable-background:new 0 0 600 600;" xml:space="preserve">
<style type="text/css">
	.st0{fill:#E9EFF4;}
	.st1{fill:#DAE7F2;}
	.st2{fill:none;stroke:#0A0A0A;stroke-width:2;stroke-linecap:round;stroke-linejoin:round;stroke-miterlimit:10;}
	.st3{fill:#0A0A0A;}
	.st4{fill:#FF4560;}
	.st5{fill:#FFE843;}
	.st6{fill:#0A0A0A;stroke:#0A0A0A;stroke-width:2;stroke-linecap:round;stroke-linejoin:round;stroke-miterlimit:10;}
	.st7{fill:#FFE843;stroke:#FFE843;stroke-width:2;stroke-linecap:round;stroke-linejoin:round;stroke-miterlimit:10;}
	.st8{fill:none;stroke:#FFE843;stroke-width:2;stroke-linecap:round;stroke-linejoin:round;stroke-miterlimit:10;}
	.st9{fill:#FFFFFF;stroke:#0A0A0A;stroke-width:2;stroke-linecap:round;stroke-linejoin:round;stroke-miterlimit:10;}
	.st10{fill:none;stroke:#FF4560;stroke-width:2;stroke-linecap:round;stroke-linejoin:round;stroke-miterlimit:10;}
	.st11{fill:#FFFFFF;}
	.st12{fill:#FF4560;stroke:#FF4560;stroke-width:2;stroke-linecap:round;stroke-linejoin:round;stroke-miterlimit:10;}
	.st13{fill:none;}
</style>
<g>
	<g>
		<path class="st0" d="M423.7,342.1c0,0-4.6,13.1-4.5,17.2c0,0-12.6-7.6-20.8-18.5c-8.2-10.9-9-13-9-13s0.6-4.4-1.7-4.9
			c-1.9-0.4-4.3-6.3-5.6-10C397.6,320.2,411.8,329.8,423.7,342.1z"/>
		<path class="st0" d="M220.6,300.2v2.8c-4.9,7.6-30.2,28.8-39.9,35.7c-8.3,5.9-25.7,14.3-30.3,16.5c0.3-17.4,7.6-34.9,31.6-44
			C192.9,306.9,206.1,303.1,220.6,300.2z"/>
		<path class="st0" d="M252.8,374.6c-1-1.6-10.8-10.1-16.4-17c-5.6-7-7.2-12.3-7.2-12.3s-8.6,3.5-12.1,5.9c-3.5,2.4-7.5,5.4-7.5,5.4
			c8.2,15.4,4.7,17.4,4.7,17.4c-10.9,9.6-21,16.5-29.3,21.3c21.9-1.1,43.9-2.2,66-3.1C252.6,383.3,253.5,375.8,252.8,374.6z"/>
		<path class="st0" d="M280.5,303.5c-6,17.8-10.3,38.9-10.3,38.9c-13.5-8.2-19.6-18.6-21.8-24.2c-2.2-5.5-3.1-4.5-3.1-4.5l5.6-18.1
			c7.8-0.8,15.9-1.4,24.1-1.6L280.5,303.5z"/>
		<path class="st0" d="M339,313.2c0,0-2.1,1.7-1.6,5.7c0.5,4-1.4,7.1-9.3,15.4c-7.9,8.4-20,10-20,10v-38.5c5.2,1.8,8.6-2.5,6.9-6.6
			c-1.8-4-5.8-1-5.8-1l0.8-3.3c9.5,0.8,18.9,2.1,28.2,4C340,307.7,339,313.2,339,313.2z"/>
		<path class="st0" d="M395.1,391.3c2.1-4.1,4.6-7,5.5-8l-7.3-6.6c0,0-24.2-25.6-29.2-44.6c0,0-4.4,28-33.9,47.5c0,0-0.6-0.1,0,1.3
			c0.6,1.4,0.6,2.2-0.4,4c-0.2,0.4-0.3,2.3-0.3,5.1C351.4,390,373.2,390.3,395.1,391.3z"/>
	</g>
	<path class="st4" d="M294,435.9c-2.8,2.8-8.9,11.8-8.9,11.8l-9-10.8c-1.5-11,6.6-65.5,6.6-65.5c-0.4-0.4-1.2-4.6-1.2-4.6
		c2.5-2.5,4.8-4.6,4.8-4.6s2.1,2.6,4.2,5.4v0l-1.4,3.8c0,0,0.7,6.4,0,11.5C288.6,388,294,435.9,294,435.9z"/>
	<path class="st4" d="M129.5,285.8c0,0,3.6-5.8,5.8-6.8s3.6,2.7,5.1,4c1.6,1.2,3,2.4,4.7,0.5c1.7-1.9,6.2-9.1,6.2-9.1l0.4,12
		L129.5,285.8z"/>
	<g>
		<g>
			<ellipse class="st2" cx="292.1" cy="125.9" rx="29" ry="2.6"/>
			<path class="st2" d="M263,131l-8.6,41.5c-2.6,12.8,1.2,26.2,10.7,35.2c2.5,2.4,5.3,4.5,8.4,6.1c5.2,2.8-1.7,8.5-2.3,14.5l0,0.1
				 M312,240.3c-4.9-2.1,1.5-6.5,0.9-11.9l0-0.1c-0.6-5.9-7.7-11.6-2.5-14.4c3.4-1.8,6.6-4.1,9.3-6.9c0.4-0.4,0.7-0.7,1-1.1
				c8.3-8.9,11.4-21.5,9-33.4l-8.6-41.5"/>
			<line class="st2" x1="321.1" y1="131" x2="321.1" y2="125.9"/>
			<path class="st2" d="M321.1,258.4v2.2c0,2.3-1.9,4.2-4.2,4.2h-49.8c-2.3,0-4.2-1.9-4.2-4.2V258"/>
			<line class="st2" x1="263" y1="131" x2="263" y2="125.9"/>
			<path class="st5" d="M292.1,188.6c-10.9,0-19.8-8.9-19.8-19.8c0-10.9,8.9-19.8,19.8-19.8c10.9,0,19.8,8.9,19.8,19.8
				C311.9,179.7,303,188.6,292.1,188.6z"/>
			<path d="M293.2,159.7l1.8,4.1c0.2,0.4,0.6,0.7,1,0.8l4.5,0.4c1.1,0.1,1.5,1.5,0.7,2.2l-3.4,3c-0.3,0.3-0.5,0.8-0.4,1.2l1,4.4
				c0.2,1.1-0.9,1.9-1.9,1.4l-3.9-2.3c-0.4-0.2-0.9-0.2-1.3,0l-3.9,2.3c-0.9,0.6-2.1-0.3-1.9-1.4l1-4.4c0.1-0.4,0-0.9-0.4-1.2
				l-3.4-3c-0.8-0.7-0.4-2.1,0.7-2.2l4.5-0.4c0.5,0,0.9-0.3,1-0.8l1.8-4.1C291.4,158.7,292.8,158.7,293.2,159.7z"/>
			<g>
				<g>
					<path class="st2" d="M326.1,154.2l14.1-1.6c3.4-0.4,6.3,2.5,5.9,5.9l-2.8,25.8c-0.8,6.8-5.8,12.4-12.5,14l-5,1.1"/>
					<path class="st2" d="M327.3,160.2l12-1.2l-2.2,25.3c-0.3,3.8-3,7-6.7,7.8c-0.5,0.1-1,0.2-1.6,0.2"/>
				</g>
				<g>
					<path class="st2" d="M258.1,154.2l-14.1-1.6c-3.4-0.4-6.3,2.5-5.9,5.9l2.8,25.8c0.8,6.8,5.8,12.4,12.5,14l5,1.1"/>
					<path class="st2" d="M256.9,160.2l-12-1.2l2.2,25.3c0.3,3.8,3,7,6.7,7.8c0.5,0.1,1,0.2,1.6,0.2"/>
				</g>
			</g>
		</g>
		<path class="st2" d="M289.9,287l-24.3-9.2l15.1,25.8c0,0-8.7,24.7-10.6,38.8c-0.2,1.3,0.1,2.6,0.8,3.7c2.1,3.5,7.6,11.6,15.5,16.1
			c0,0,10-4.2,20.2-13.9c1-0.9,1.6-2.2,1.6-3.6l0-38.8"/>
		<path class="st2" d="M231.1,349.6c8.9,15,20.2,22.7,21.6,24.8c2,3.1-4.3,26.6-12.3,80.1"/>
		<path class="st2" d="M269.7,342.2c0,0-16.4-9.2-21.4-24.5c-2-6-2.9-3.4-2.9-3.4s12.9-39,10.6-48.7c0,0-13.8-1.9-20.2-7.9
			c0,0-19,29.5-15,61.9"/>
		<path class="st2" d="M245.4,314.4c0,0,0,1.2-5.3,2.8"/>
		<path class="st2" d="M308.1,344.4c0,0,10.8-0.3,22.4-12.4c11.6-12.1,4.1-17.7,8.7-18.8c0,0,2.5-9.6-6-28.9
			c-7.4-16.6-4.2-19.9-4.2-19.9s15.5-2.9,19.4-8.1c0,0,13.7,18.9,17.4,46c3.7,27.1-7,59.9-36.4,77.8c0,0,2.5,1.5,0.4,4.9
			c-1.6,2.6,1.7,48.6,3.4,71.3"/>
		<path class="st2" d="M308.1,305.9c4.4,2.3,9.2-3.1,7-6.6c-2.7-4.4-7-0.1-7-0.1"/>
		<path class="st2" d="M311.2,302c0,0-1.5-0.9-3.1,0.9"/>
		<path class="st6" d="M310.1,297.8c-1.2,0.6-2,1.4-2,1.4c-6,1-3.9-9-3.9-9s-6,2.9-11.7,0c-1.4-0.7-2.2-1.9-2.6-3.1
			c-1.4-4.5,5.6-11.2,7.7-7c3.3,6.6,10.6,4.2,12,6.2C311.8,289.5,310.4,296.5,310.1,297.8z"/>
		<path class="st2" d="M339.2,313.2c0,0,1.7,1.2,3.9,1.2"/>
		<path class="st2" d="M266.1,343.8c-1.7,16.2,10.1,29,10.1,29c2.7-3.8,10.2-10.6,10.2-10.6s7.8,9.7,9,11.8c0,0,15.3-10.8,17.2-30.4
			"/>
		<path class="st2" d="M282.8,371.4c0.4,0.4,6.5,0,6.5,0"/>
		<path class="st2" d="M299.2,383.3c0,0,10.6,0.3,15.9-0.9"/>
		<path class="st2" d="M348.4,256.3c0,0-2.3-5.3-3.2-5.9c-0.9-0.6-8.4,5.9-17.8,7.9c-1.5,0.3,0.4,4.4,1.6,6.1"/>
		<path class="st2" d="M235.8,257.7c0,0,2.2-7.9,4.5-6.2c11.5,8.6,18,5.9,18.3,7.4c0.3,1.6-2.6,6.7-2.6,6.7"/>
		<g>
			<path class="st2" d="M292.3,316.9c0,0,5,0.4,6.1-4c0,0-5.8,1.8-8.6-1"/>
			<path class="st2" d="M292.7,316.9c0,0,0-2.3,3.1-3.6c0,0-2.4,0.5-3.9-0.2C291.9,313.1,292.8,314.7,292.7,316.9z"/>
		</g>
		<path class="st2" d="M105.8,332.1c-5.2,2.1-10.5-4.4-7.3-7.4c2.2-2,4.6-1,6.2,0.1c1,0.7,1.7,1.5,1.7,1.5c-2-13.2,7.1-16,12.5-15.4
			s18.4,1.6,26.7,1.4c0,0-13.3,13.5-13.3,14.4c0,0.9,7.7,24.9,8.1,32.5c0,0,22.7-7.6,44.7-23.5c18.6-13.4,31.7-28.2,31.7-28.2"/>
		<path class="st2" d="M105.8,332.1c0,0,5.6,33.8,4.4,35.6c-1.1,1.8-2.7-0.5-4.5,2.3c0,0-19.8,14.4-6.7,31.7
			c14.2,18.8,70,14,115.4-27.8"/>
		<path class="st2" d="M102.1,404.9c0,0-4,47.9-4.9,56.9c0,0-5.1,2.4,2.4,7"/>
		<path class="st2" d="M164.1,405.1c0,0,4.3,16.8,6.9,37.2"/>
		<path class="st2" d="M209.6,356.3c6.4,11.6,6.9,19.6,3.1,17.3c-10.1-6.1-14-26.4-15-33.4c-0.2-1-1.4-1.4-2.1-0.7
			c-6.1,5.8-27,25.1-45.5,36.3c-22,13.3-33.1,8.7-33.1,8.7s2.5-3.9-2.6-2.2"/>
		<path class="st2" d="M197.7,340.2c0,0,3-2.3,9.4-13.7c4.5-8,7.1-3.7,5,1c-2.1,4.8-2.5,7.1,1,5.7c9.7-3.9,10.2-13.7,13.4-13.7
			c3.6,0-0.4,8.7-3.6,12.5"/>
		<path class="st2" d="M222.8,332.1c0,0,3.8-1.8,6.2-6.6c0.9-1.8,1.4-3.4,2.8-3.2c2.2,0.4,2.3,5.4-4.6,13c0,0,1.1,0.5,3.3-0.5
			c3.9-1.7,4.1-6.9,6.6-6.7c2.5,0.2,0.2,4.8-2.2,8.1c-2.8,3.8-7.6,5-7.6,5"/>
		<path class="st2" d="M236.3,334.4c0,0,3.5-0.2,0.2,4.7c-2,2.9-3.9,4.6-10.9,7.6c-4.8,2-16.7,9.5-22.6,13.6"/>
		<line class="st2" x1="227.1" y1="335.4" x2="225.5" y2="337.3"/>
		<path class="st2" d="M110.2,367.7c0,0,22.9,10.9,25.3,10.7s5.2-15.7,4.7-19.2"/>
		<path class="st2" d="M121.1,372.7c0,0,15.3,2.7,18.5-6.2"/>
		<path class="st2" d="M102.7,328.5c0,0,2-1.3,3.8,0.8"/>
		<g>
			<path class="st6" d="M119.4,324c0,0,1.2,2.8,0.8,3.3c-0.4,0.5-1.2-2.2-1.1-2.9"/>
			<path class="st6" d="M125.1,322.3c0,0,1.2,2.8,0.8,3.3c-0.4,0.5-1.2-2.2-1.1-2.9"/>
		</g>
		<g>
			<path class="st2" d="M124.4,338.7c0,0-2-0.1-3.9-1.6c-0.7-0.6-1.7-0.1-1.8,0.7c-0.3,2.1-0.5,5.1,1.2,6.6c2.3,2.1,5,0.4,4.8-3.9"
				/>
			<path class="st2" d="M124.6,342.1c0,0-2.5-2-6.1-1.2"/>
			<path class="st3" d="M124.7,338.9c0,0-0.6,2.6-0.4,3.1c0,0-3.1-1.9-5.6-1c0,0-0.4-1.2-0.1-3.2c0.1-0.9,1.2-1.3,1.9-0.7
				C121.4,337.9,122.8,338.7,124.7,338.9z"/>
		</g>
		<path class="st2" d="M122.9,311.2c0,0-1.3-3.5-6.1-4.3c-5.5-0.9-15.7,3.6-14.1,16.8"/>
		<path class="st6" d="M102.7,323.7c-1.3-0.4-2.8-0.4-4.3,0.9c-3.2,3,2.1,9.5,7.3,7.4c0,0,2.3,14.1,3.7,24.6
			c-11.7,5.6-25.1-12.3-18.3-11.4c12,1.6,2.3-25.9,8.7-33.6c7.1-8.6,16.5-5,17-4.8C111.4,305.9,101.2,310.5,102.7,323.7z"/>
		<path class="st6" d="M106.3,326.2c0,0,11-6.1,8.1-15.1C114.4,311,104.8,312.8,106.3,326.2z"/>
		<path class="st2" d="M114.4,311c0,0,2.5,2.4,2.7,6.4"/>
		<path class="st2" d="M115.8,311c0,0,3.8,1.4,3.9,5.6"/>
		<path class="st2" d="M118.4,453.5c15.4-4.1,17.6-20.7,17.6-20.7s10.9-1.2,26.2-4.9c0,0,2.5,6.4,8,9.4"/>
		<g>
			<g>
				<path class="st2" d="M436.1,313.9c0,0-22.9,2.3-24,2s17,10.3,17,10.3s-10.7,29.9-10,35.1c0,0,2.1,51.6,3,53
					c0.8,1.4-10.4-25.4-10-27.7c0.5-2.3,6.3-5,4.4-6.1c-1.9-1.1-7.4-8.3-8.3-9.7c-0.8-1.4,8.1-10.4,8.1-10.4"/>
				<path class="st2" d="M454.7,335.1c0,0-3.1,22-3.8,28.1"/>
				<path class="st2" d="M366.1,337.8c7.9,16.4,18.9,32.5,34.9,45.2c0,0-11,10.2-8.3,25.9c0.7,4.1-1,15.6-3.4,29.8"/>
				<path class="st2" d="M419.1,359.3c0,0-16.5-7.8-29.8-32.5c0,0,0.4-1.7-0.2-2.4c-1.6-2-3.4-2.2-3.8-3c-8-16.3-7.1-35.8-15.6-48.5
					c-1.2-1.9-2.9-3-4.6-3.6c0,0-1.6,1-3.8,1.9"/>
				<path class="st2" d="M464.6,467.9c-2.7-23.2-4.2-76,0.6-78.6c4.5-2.5,25.1-14,38.4-48.3c13.3-34.4,12.6-64.4,12.6-64.4
					s0.4-2.1-1.1-2.9"/>
			</g>
			<path class="st2" d="M400.9,383c0,0,2.5-2.5,3.3-5"/>
			<path class="st2" d="M453.9,329.4c0,0,3-4.4,6.5-2.8c3.5,1.7,0.9,9.2-5.7,8.5"/>
			<path class="st2" d="M458,331.3c0,0-0.4-0.9-2.9,0.9"/>
			<path class="st2" d="M389.3,326.8c0,0-2.2,1-3.5,3.4"/>
			<path class="st2" d="M482.4,326.9c0,0,1.5,1.5,4.3,2"/>
			<g>
				<path class="st2" d="M499.9,272.7c0,0,1.1-1.1-0.2-6.2c-0.5-2.1-2.3-4.7-3.5-8.4c-2.6-8.4-0.6-10.4,0.8-10.4c2.7,0,3.3,10,5.2,9
					c3.7-2.1,0-16.1,2.6-19.3c2.8-3.4,3.8,3.4,3,14.2"/>
				<path class="st2" d="M508,246.2c0,0,0-12,3.3-10s1.3,17.7,1.3,17.7s2.1-14.2,4.8-14.4c2.7-0.1,2,6.5-0.3,15.1
					c0,0,3.7-9.7,6.4-9.1s-1.1,4.5-3.1,11.2c-1.3,4.2-4.5,11.3-5.6,18.1c-0.2,1.2-1.1,2.2-2.3,2.5c-6.7,1.4-12.6-4.6-12.6-4.6
					c-7.7,5.6-5.2,20.6-17.2,53.6c-0.7,1.9,0-1.4-2.9,5.4c-11.3,26.7-27.3,30.3-27.3,30.3"/>
				<path class="st2" d="M501.9,256.7c0,0,8.4,1.6,6.1,10.9"/>
			</g>
			<g>
				<path class="st2" d="M355.5,259.8c0,0-1.4-5.4,3.8-11.5c0,0-0.6-0.4-3.4-5.5c-2.8-5.1-1-6.8,1.1-5.7c2.6,1.4,4.4,4.5,6.5,6.5
					c1.2,1.2,1.6,1.1,1.6,1.1"/>
				<path class="st2" d="M361,240.8c0,0-1.1-3.6-4.8-8c-3.2-3.8-0.6-6.4,3.7-2.5c4.3,4,6.8,8.6,7.8,12.1c0.9,3-0.5,13.1-1.6,18.9
					c-1.1,5.8-0.9,8-0.9,8"/>
				<path class="st2" d="M357.4,236.6c0,0-6-8.1-8.8-7.3c-3,0.8,0,4.5,3,7.6c3,3.2,3.2,5.8,3.2,5.8s-7.8-8.6-10.8-6.9
					c-3.5,2,5.1,6,6.8,9.4"/>
				<path class="st2" d="M350.1,244.1c0,0-6.2-2.8-7.6-1.3c-1.6,1.9,7.9,4.8,8.5,5.7c0.3,0.5-0.5,2.5-1,5.6"/>
			</g>
			<path class="st6" d="M458,326.4c-2.4,0.5-4.1,3-4.1,3c-11.4,5.6-17.9-15.5-17.9-15.5s-0.6,0.1-1.6,0.2c0.8-1.1,7.7-10.3,12.6-7.4
				c5.2,3.1-1.1,9.9,5.6,7.2C459.2,311.3,459.3,321.4,458,326.4z"/>
			<path class="st2" d="M450.9,364.2c0,0-25.8,42.5-28.8,50.2c-1.2,3.1,26.2-21.9,27.1-23.8s-2.4-4.9-2.5-7.1
				c-0.1-2.3,8.8-1.1,10-2.8c1.2-1.7-0.5-12.9-2.6-19"/>
			<path class="st2" d="M419.8,378c0,0,4.9,9.6,7,10c2.1,0.5,13.2-5.7,13.2-5.7"/>
			<path class="st2" d="M422,417.2c0,0-7,0-2.9,3.7c0,0-2.2,1-1.3,4.5c0.7,2.9-4.1,24.5-5.2,38.8"/>
			<path class="st2" d="M429,454.4c0,0,13,1.2,22.5,0"/>
			<path class="st2" d="M432.1,338.1c0,0,2.2,3.3,7.8-1.2"/>
		</g>
		<path class="st5" d="M227.4,166.6c0,0,0.3,6.1-4.1,7.9c0,0,4.3-1.6,4.9,5.9c0,0,0-4.8,4.9-6.8
			C233.2,173.6,228.3,173.1,227.4,166.6z"/>
		<path class="st5" d="M239.7,134.3c0,0,0.3,6.1-4.1,7.9c0,0,4.3-1.6,4.9,5.9c0,0,0-4.8,4.9-6.8
			C245.5,141.3,240.6,140.8,239.7,134.3z"/>
		<path class="st5" d="M339.4,131c0,0-0.6,6.1-5.2,7.3c0,0,4.5-1,4,6.5c0,0,0.7-4.8,5.8-6C344.1,138.8,339.3,137.6,339.4,131z"/>
		<g>
			<path class="st2" d="M314.1,240c0,0,0.1,2.2-7.4,2.4c-1.2,0-3.3,0.1-4.9,0.1c-4.7-0.2-5.2,2.3-2.1,3.2c7,1.9,14.3,0.7,14.3,0.7"
				/>
			<path class="st2" d="M301.7,246c0,0-5.1-0.2-3.8,2.3c1.5,2.8,13.6,2.8,18.6,2"/>
			<path class="st2" d="M312.2,250.7c0,0-3.7,2.4-9,1.7c-2.7-0.4-4.8,0.3-3.7,1.8c0.9,1.4,3.4,2.3,8.6,2.2s9.6-2.2,9.6-2.2"/>
			<path class="st2" d="M309.8,256.4c0,0-6.3,1.2-6.3,2.8c0,1.7,3.4,1.1,7.2,0.6c5.8-0.9,12.4-3.2,13-3.6c0.6-0.4,3.6,2,3.6,2"/>
			<path class="st2" d="M310.8,235.7c4.6,0.6,7.4,1,11.6,2.1c14.4,3.9,19.8,13.4,19.8,13.4"/>
		</g>
		<g>
			<polyline class="st2" points="276.8,181.3 268.7,189.4 274.4,189.4 274.4,201.7 287.9,188.2 			"/>
			<polyline class="st2" points="307.6,181.3 315.6,189.4 310,189.4 310,201.7 296.5,188.2 			"/>
		</g>
		<path class="st2" d="M274.3,160.2c0,0-10.9-1-16.6-3l-1.9,9.4c0,0,5.5,3.2,16.7,4.1"/>
		<path class="st2" d="M309.9,160.2c0,0,10.9-1,16.6-3l1.9,9.4c0,0-5.5,3.2-16.7,4.1"/>
		<path class="st2" d="M283.3,226.7c0.7-0.7,1.6-1.2,2.7-1.2h12.3c2,0,3.6,1.6,3.6,3.6v0c0,2-1.6,3.6-3.6,3.6H286
			c-0.8,0-1.5-0.2-2.1-0.7"/>
		<g>
			<path class="st5" d="M416.1,284l-0.5,9l2.8-1.8l4.3,1.8l-1.2-9C421.4,284,418.9,285.1,416.1,284z"/>
			<circle class="st2" cx="418.7" cy="277" r="7.5"/>
			<path class="st3" d="M418.3,274L418.3,274c0.6,1.1,1.6,1.8,2.8,2.1l0,0l0,0c-0.8,0.9-1.2,2.1-1.1,3.3v0v0c-1.1-0.5-2.4-0.5-3.5,0
				v0v0c0.2-1.2-0.2-2.5-1.1-3.3l0,0l0,0C416.7,275.8,417.8,275.1,418.3,274L418.3,274z"/>
		</g>
		<g>
			<path class="st5" d="M434.2,272.2l-0.5,9l2.8-1.8l4.3,1.8l-1.2-9C439.6,272.2,437.1,273.4,434.2,272.2z"/>
			<circle class="st2" cx="436.9" cy="265.2" r="7.5"/>
			<path class="st3" d="M436.5,262.2L436.5,262.2c0.6,1.1,1.6,1.8,2.8,2.1l0,0l0,0c-0.8,0.9-1.2,2.1-1.1,3.3v0l0,0
				c-1.1-0.5-2.4-0.5-3.5,0l0,0v0c0.2-1.2-0.2-2.5-1.1-3.3l0,0l0,0C434.9,264.1,435.9,263.3,436.5,262.2L436.5,262.2z"/>
		</g>
		<g>
			<path class="st5" d="M461.5,287.2l-0.5,9l2.8-1.8l4.3,1.8l-1.2-9C466.8,287.2,464.3,288.3,461.5,287.2z"/>
			<circle class="st2" cx="464.1" cy="280.2" r="7.5"/>
			<path class="st3" d="M463.7,277.2L463.7,277.2c0.6,1.1,1.6,1.8,2.8,2.1l0,0l0,0c-0.8,0.9-1.2,2.1-1.1,3.3l0,0l0,0
				c-1.1-0.5-2.4-0.5-3.5,0l0,0l0,0c0.2-1.2-0.2-2.5-1.1-3.3l0,0l0,0C462.1,279.1,463.2,278.3,463.7,277.2L463.7,277.2z"/>
		</g>
		<g>
			<g>
				<path class="st2" d="M160.6,269.6c-5.7-5-14.9-6.1-20.4-6.1c-19-0.2-25.4,8.1-25.7,15.1c-0.3,7.1,3.2,15.1,16.1,17.5
					c0,0-3.8,5.2-2.5,6.3c1.3,1.1,6.7-4.7,8.5-5.4c0,0,11.5,2.4,21.3-1.9C166.2,291.4,170,277.8,160.6,269.6z"/>
				<g>
					<path class="st2" d="M129.5,285.8c0.2-0.5,4.5-7.5,6.8-6.9c2.1,0.6,3.7,5.1,6.7,5.6c2.9,0.5,8.4-10.1,8.4-10.1l-4,1.3"/>
					<line class="st2" x1="151.3" y1="274.4" x2="151.8" y2="278.2"/>
				</g>
			</g>
		</g>
		<path class="st2" d="M189.4,345.3c0,0-0.9,26.9,14.3,37.5"/>
		<path class="st2" d="M97.2,461.8c0,0,3.1,1.8,4.9,0"/>
		<circle class="st3" cx="424.4" cy="422.1" r="1.3"/>
		<circle class="st3" cx="421.1" cy="444.6" r="1.3"/>
		<path class="st2" d="M288.6,298.6c0,0,1.9-2.2,2.7-1.8c0.9,0.4,1.2,2.5,1.2,2.5"/>
		<path class="st2" d="M297.1,300.2c0,0,1.9-2.2,2.7-1.8c0.9,0.4,1.2,2.5,1.2,2.5"/>
		<path class="st2" d="M242.1,252.8c0,0,6-8.5,7.2-9.9c3.3-3.8,10-11.8,15.2-15.3c0,0,3.6-2.2,7.9-3.6"/>
		<path class="st2" d="M261.8,232.8c0,0,0.5,0.1,2.8-1.2c1.3-0.8,2.9-1.5,5.3-2.5c5.5-2.4,13.1-1.4,13.3,0.2
			c0.3,2.5-7.2,1.9-10.2,3.9c-2,1.3-4.4,3.7-3.7,3.4s5.5-1.6,9.1-2.7s8.9-1.1,6.4,1.6c-2.1,2.3-12,5.2-13.3,6.2
			c-1.3,0.9,9-1,10.7-1.6c1.7-0.6,5.4-1.4,5.8,0c0.3,1-1.4,1.9-4.1,3.3c-2.7,1.4-7.9,2.4-9,3.2s5.2,0.5,7.2,0c2-0.5,3.4-1.8,4.3-1.6
			c2,0.4-0.1,3.5-4.3,5.3c-2.8,1.2-12.6,1.9-15.6,2.4c-2.9,0.5-8.6,6.2-8.6,6.2"/>
	</g>
	<path class="st2" d="M408.1,467.8c61.5,6,86.8,15.1,86.8,15.1"/>
	<path class="st2" d="M328.6,463.1c6.9,0.2,13.6,0.4,20,0.7"/>
	<path class="st2" d="M222.3,464.2c9.8-0.5,20.4-0.9,31.6-1.2"/>
	<path class="st2" d="M95.5,482.9c0,0,17.7-7.9,67-13.8"/>
	<g>
		<path class="st2" d="M220.9,475.1c0,0,3.4-34,1.6-34.4s-57.3,7-58.4,9.1c-1.1,2.1-1,36.3,0,38.5
			C165.1,490.5,216.2,477.5,220.9,475.1z"/>
		<path class="st2" d="M164.1,488.3c0,0-32.2-7.6-34.4-8.9c-2.1-1.3,23.9-4.8,33.6-6.7"/>
		
			<ellipse transform="matrix(0.1796 -0.9837 0.9837 0.1796 -295.5844 573.3799)" class="st2" cx="196" cy="463.9" rx="4.3" ry="2.8"/>
	</g>
	<g>
		<path class="st2" d="M350,475.1c0,0-3.4-34-1.6-34.4s57.3,7,58.4,9.1c1.1,2.1,1,36.3,0,38.5C405.8,490.5,354.7,477.5,350,475.1z"
			/>
		<path class="st2" d="M406.8,488.3c0,0,32.2-7.6,34.4-8.9c2.1-1.3-23.9-4.8-33.6-6.7"/>
		
			<ellipse transform="matrix(0.9837 -0.1796 0.1796 0.9837 -77.2269 74.882)" class="st2" cx="374.9" cy="463.9" rx="2.8" ry="4.3"/>
	</g>
	<g>
		<path class="st2" d="M253.2,453.5c0,0,3.1,27.8,4.7,29.4s63,1.9,65.2,0c2.2-1.9,6.8-28.6,6.8-31.2c0-2.6-74.3-3.2-76.7,0"/>
		<circle class="st2" cx="291.1" cy="467.9" r="4"/>
	</g>
</g>
</svg>
