<svg width="559" height="510" viewBox="0 0 559 510" fill="none" xmlns="http://www.w3.org/2000/svg">
<path d="M154.752 311.029C157.965 313.668 161.867 312.406 161.867 312.406C161.867 312.406 161.178 330.422 161.178 335.816C161.178 341.209 161.752 349.471 161.752 349.471C161.752 349.471 157.621 347.52 156.818 348.209C156.015 348.783 155.326 349.93 156.244 351.307C157.162 352.684 158.31 352.569 154.064 353.373C149.818 354.061 142.13 356.815 142.13 356.815C142.13 356.815 141.441 348.897 141.441 348.783C141.441 348.668 141.097 345.34 135.474 345.34C129.851 345.34 122.163 345.34 122.163 345.34C122.163 345.34 86.704 329.16 118.95 307.586C129.162 300.701 145.572 295.078 162.785 291.521C161.523 296.111 162.556 304.718 162.556 304.718C162.556 304.718 159.342 301.504 155.785 302.652C152.113 303.685 151.424 308.39 154.752 311.029Z" fill="#E9EFF4"/>
<path d="M246.669 326.521C246.669 326.521 230.489 344.996 214.997 348.668C199.506 352.455 203.522 347.865 198.703 349.242C198.703 349.242 198.473 349.471 197.899 349.815C196.867 343.504 191.244 309.193 191.932 307.357C192.735 305.291 210.522 298.636 210.981 298.291C211.44 297.947 187.686 292.669 187.686 292.669C187.686 292.669 187.801 292.095 187.916 291.521C188.031 290.947 187.916 291.521 189.063 290.833C189.752 290.374 189.637 288.652 189.522 287.39C217.178 285.095 240.358 288.996 236.341 302.308C228.424 327.898 253.21 310.685 246.669 326.521Z" fill="#E9EFF4"/>
<path d="M449.322 311.029C446.109 313.668 442.208 312.406 442.208 312.406C442.208 312.406 442.896 330.422 442.896 335.816C442.896 341.209 442.323 349.471 442.323 349.471C442.323 349.471 446.454 347.52 447.257 348.209C448.06 348.783 448.749 349.93 447.831 351.307C446.913 352.684 445.65 353.373 450.011 353.373C455.519 353.373 461.945 356.471 461.945 356.471C461.945 356.471 468.486 356.93 483.289 350.963C493.732 346.717 517.371 329.045 485.125 307.472C474.912 300.587 458.503 294.964 441.29 291.406C442.552 295.996 441.519 304.603 441.519 304.603C441.519 304.603 444.732 301.39 448.29 302.537C451.962 303.685 452.65 308.39 449.322 311.029Z" fill="#E9EFF4"/>
<path d="M357.406 326.521C357.406 326.521 374.045 342.701 389.536 346.143C402.044 348.897 401.012 344.766 405.831 346.143C405.831 346.143 406.061 346.373 406.634 346.717C407.667 340.406 413.061 315.734 411.569 314.472C406.061 309.652 393.667 298.636 393.208 298.291C392.749 297.947 416.503 292.669 416.503 292.669C416.503 292.669 416.388 292.095 416.274 291.521C416.159 290.947 416.274 291.521 415.126 290.833C414.438 290.374 414.552 288.652 414.667 287.39C387.012 285.095 363.832 288.996 367.848 302.308C375.536 327.898 350.75 310.685 357.406 326.521Z" fill="#E9EFF4"/>
<path d="M354.422 389.061C354.422 389.061 347.193 389.061 344.324 389.061C341.34 389.061 339.848 400.077 352.242 475.814H363.028C363.028 475.814 365.553 451.716 366.012 448.044C366.471 444.372 369.684 422.569 368.766 413.159C367.733 403.749 364.635 399.733 354.422 389.061Z" fill="black"/>
<path d="M261.702 475.814C261.702 475.814 263.308 404.552 271.341 388.372C279.374 372.192 259.981 377.815 259.981 377.815C259.981 377.815 248.391 388.831 243.686 394.798C238.981 400.766 234.046 406.274 235.079 419.7C236.227 433.126 238.407 451.601 238.407 451.601H246.669V464.339H255.505V475.814H261.702Z" fill="black"/>
<path d="M416.274 292.783C416.274 292.783 395.503 297.144 393.094 297.947C390.684 298.75 410.306 312.521 411.569 314.586C412.601 316.307 408.585 335.127 406.864 345.34" stroke="black" stroke-width="2.29505" stroke-miterlimit="10" stroke-linecap="round" stroke-linejoin="round"/>
<path d="M442.322 312.75C442.322 312.75 443.47 346.373 442.322 348.783C441.175 351.192 446.568 346.373 448.175 348.783C449.781 351.192 444.732 353.143 448.175 353.143C451.617 353.143 472.732 351.996 493.961 391.93L503.256 407.651" stroke="black" stroke-width="2.29505" stroke-miterlimit="10" stroke-linecap="round" stroke-linejoin="round"/>
<path d="M302.095 203.391C304.504 203.391 304.963 207.407 304.963 207.407C304.963 207.407 305.996 204.424 307.603 206.03C308.75 207.178 307.717 210.506 307.832 211.997C307.947 212.571 308.062 207.981 310.127 209.817C310.816 210.506 310.931 213.719 310.931 216.243" stroke="black" stroke-width="2.29505" stroke-miterlimit="10" stroke-linecap="round" stroke-linejoin="round"/>
<path d="M305.767 289.341C304.39 284.177 303.242 279.128 302.095 274.193" stroke="black" stroke-width="2.29505" stroke-miterlimit="10" stroke-linecap="round" stroke-linejoin="round"/>
<path d="M363.487 472.715C367.044 425.552 374.962 409.257 360.274 394.798C342.487 377.241 339.045 372.422 332.619 364.389C309.324 334.783 304.275 297.259 304.275 297.259C304.275 297.259 298.881 292.898 306.111 290.373C306.111 290.373 318.16 293.701 329.635 283.947C329.635 283.947 334.34 280.39 335.487 285.783C335.832 287.619 338.701 299.439 341.799 305.291C342.717 307.127 345.127 307.127 346.274 308.849C347.077 310.226 346.618 313.209 347.536 314.586C354.192 323.652 363.258 332.029 374.848 339.258C395.847 352.455 402.044 344.422 406.864 346.832" stroke="black" stroke-width="2.29505" stroke-miterlimit="10" stroke-linecap="round" stroke-linejoin="round"/>
<path d="M442.322 348.783C442.322 348.783 433.372 364.389 406.634 346.832" stroke="black" stroke-width="2.29505" stroke-miterlimit="10" stroke-linecap="round" stroke-linejoin="round"/>
<path d="M441.404 305.291C441.404 305.291 446.913 299.324 450.355 304.259C453.568 308.849 447.372 314.357 442.093 312.406" stroke="black" stroke-width="2.29505" stroke-miterlimit="10" stroke-linecap="round" stroke-linejoin="round"/>
<path d="M445.191 308.849C445.191 308.849 442.093 308.849 442.093 312.406" stroke="black" stroke-width="2.29505" stroke-miterlimit="10" stroke-linecap="round" stroke-linejoin="round"/>
<path d="M478.699 394.454C478.699 394.454 482.256 399.388 479.847 402.257C478.814 403.405 479.617 413.274 480.879 425.667" stroke="black" stroke-width="2.29505" stroke-miterlimit="10" stroke-linecap="round" stroke-linejoin="round"/>
<path d="M426.945 321.013C423.044 317.685 419.487 319.98 419.487 319.98C420.06 323.767 424.65 323.881 426.945 321.013ZM426.945 321.013C428.667 318.717 429.241 315.619 428.093 314.816C426.945 314.127 426.372 315.16 423.732 316.652C420.978 318.144 419.142 317.111 419.142 317.111" stroke="black" stroke-width="2.29505" stroke-miterlimit="10" stroke-linecap="round" stroke-linejoin="round"/>
<path d="M420.405 317.455C420.405 317.455 420.864 318.029 420.519 319.521C420.519 319.521 424.192 318.144 426.831 321.127C426.831 321.127 428.208 319.406 428.552 317.34C428.896 315.275 427.978 314.472 427.06 314.701C426.142 314.931 422.929 317.914 420.405 317.455Z" fill="black"/>
<path d="M427.978 304.603C427.978 304.603 427.29 307.013 427.749 307.472C428.208 307.931 428.552 305.521 428.323 304.947" stroke="black" stroke-width="2.29505" stroke-miterlimit="10" stroke-linecap="round" stroke-linejoin="round"/>
<path d="M419.601 303.799C419.601 303.799 418.913 306.209 419.372 306.668C419.831 307.127 420.175 304.718 419.946 304.144" stroke="black" stroke-width="2.29505" stroke-miterlimit="10" stroke-linecap="round" stroke-linejoin="round"/>
<path d="M312.308 219.456C312.652 218.538 313.111 217.965 313.914 218.194C317.357 219.456 315.291 228.981 313.914 233.686C313.341 235.637 313.34 237.587 313.8 239.538C314.259 241.259 314.488 242.407 314.488 242.407C314.488 242.407 319.308 261.8 329.521 283.947" stroke="black" stroke-width="2.29505" stroke-miterlimit="10" stroke-linecap="round" stroke-linejoin="round"/>
<path d="M514.961 355.897C514.961 355.897 512.551 353.258 509.338 353.258C505.322 353.258 503.371 358.651 503.83 361.061C504.289 363.471 508.764 366.914 509.453 365.996C510.83 364.16 508.649 361.979 508.649 361.979" stroke="black" stroke-width="2.29505" stroke-miterlimit="10" stroke-linecap="round" stroke-linejoin="round"/>
<path d="M509.567 365.995C509.567 365.995 510.141 372.192 513.813 376.438C515.764 378.618 512.092 390.782 508.305 403.749" stroke="black" stroke-width="2.29505" stroke-miterlimit="10" stroke-linecap="round" stroke-linejoin="round"/>
<path d="M509.453 353.258C509.453 353.258 510.715 350.045 513.469 349.93C516.223 349.815 519.436 352.225 519.436 352.225" stroke="black" stroke-width="2.29505" stroke-miterlimit="10" stroke-linecap="round" stroke-linejoin="round"/>
<path d="M514.387 350.045C514.387 350.045 517.141 345.225 523.567 349.93" stroke="black" stroke-width="2.29505" stroke-miterlimit="10" stroke-linecap="round" stroke-linejoin="round"/>
<path d="M519.436 347.979C519.436 347.979 522.19 344.422 525.518 346.258C528.961 348.094 534.928 351.077 535.272 354.52C535.502 357.045 535.387 383.438 534.125 409.716" stroke="black" stroke-width="2.29505" stroke-miterlimit="10" stroke-linecap="round" stroke-linejoin="round"/>
<path d="M429.814 354.979C429.814 354.979 432.339 354.176 432.109 359.11C431.765 364.045 430.962 391.241 430.962 391.241" stroke="black" stroke-width="2.29505" stroke-miterlimit="10" stroke-linecap="round" stroke-linejoin="round"/>
<path d="M423.962 363.93C425.039 363.93 425.913 363.056 425.913 361.979C425.913 360.902 425.039 360.028 423.962 360.028C422.885 360.028 422.011 360.902 422.011 361.979C422.011 363.056 422.885 363.93 423.962 363.93Z" fill="black"/>
<path d="M443.355 390.208C443.355 390.208 462.748 390.553 463.322 390.208" stroke="black" stroke-width="2.29505" stroke-miterlimit="10" stroke-linecap="round" stroke-linejoin="round"/>
<path d="M416.273 292.783C416.273 292.783 419.716 279.587 422.585 279.587C425.454 279.587 424.077 289.341 425.568 286.357C427.06 283.373 430.044 274.537 431.88 281.078C433.716 287.734 434.175 291.177 436.24 287.849C438.306 284.521 443.126 276.488 443.699 284.062C444.273 291.75 442.208 304.603 442.208 304.603C442.208 304.603 438.765 306.094 437.962 295.078C437.503 289.341 416.273 292.783 416.273 292.783Z" fill="black" stroke="black" stroke-width="2.29505" stroke-miterlimit="10" stroke-linecap="round" stroke-linejoin="round"/>
<path d="M553.059 475.814H28.8687L31.508 489.928H549.731L553.059 475.814Z" stroke="black" stroke-width="2.29505" stroke-miterlimit="10" stroke-linecap="round" stroke-linejoin="round"/>
<path d="M187.571 292.783C187.571 292.783 208.342 297.144 210.751 297.947C213.161 298.75 193.194 305.176 191.932 307.127C190.784 309.078 197.096 345.11 197.899 349.93" stroke="black" stroke-width="2.29505" stroke-miterlimit="10" stroke-linecap="round" stroke-linejoin="round"/>
<path d="M53.6551 457.683C48.0322 456.88 42.065 457.568 37.5897 462.502C33.5733 466.863 35.2946 473.633 40.688 467.666" stroke="black" stroke-width="2.29505" stroke-miterlimit="10" stroke-linecap="round" stroke-linejoin="round"/>
<path d="M102.654 445.29C100.589 455.044 95.1956 461.125 78.9007 462.617" stroke="black" stroke-width="2.29505" stroke-miterlimit="10" stroke-linecap="round" stroke-linejoin="round"/>
<path d="M161.637 312.75C161.637 312.75 160.49 346.373 161.637 348.783C162.785 351.192 157.392 346.373 155.785 348.783C154.179 351.192 159.228 353.143 155.785 353.143C154.523 353.143 149.129 353.602 142.359 356.127" stroke="black" stroke-width="2.29505" stroke-miterlimit="10" stroke-linecap="round" stroke-linejoin="round"/>
<path d="M198.014 349.93C198.014 349.93 199.391 347.75 202.834 349.93C206.276 352.11 225.096 348.783 243.686 329.619C277.423 295.078 289.357 242.292 289.357 242.292C289.357 242.292 289.128 233.915 287.406 223.243C285.685 212.571 287.636 209.014 288.669 209.817C289.816 210.62 289.128 203.965 291.193 203.391C293.144 202.817 293.833 204.768 293.833 204.768C293.833 204.768 294.292 200.752 296.701 200.752C299.111 200.752 297.964 210.047 298.423 211.653C299.226 214.178 300.718 202.473 303.242 201.784C305.767 201.096 305.767 205.227 304.39 211.653C303.013 218.079 304.39 225.309 305.882 225.423C307.373 225.538 308.406 216.358 310.242 216.243C311.849 216.128 312.652 220.719 311.39 225.423C310.242 230.128 307.259 243.44 306.685 247.226C301.98 275.8 291.652 329.734 266.062 355.782" stroke="black" stroke-width="2.29505" stroke-miterlimit="10" stroke-linecap="round" stroke-linejoin="round"/>
<path d="M241.85 331.34C241.85 331.34 258.603 341.324 271.341 364.274C271.341 364.274 261.472 377.126 243.686 394.684C231.637 406.618 234.735 419.7 238.292 449.994" stroke="black" stroke-width="2.29505" stroke-miterlimit="10" stroke-linecap="round" stroke-linejoin="round"/>
<path d="M161.638 348.783C161.638 348.783 168.867 367.946 196.981 350.504" stroke="black" stroke-width="2.29505" stroke-miterlimit="10" stroke-linecap="round" stroke-linejoin="round"/>
<path d="M162.555 305.291C162.555 305.291 157.047 299.324 153.605 304.259C150.392 308.849 156.588 314.357 161.867 312.406" stroke="black" stroke-width="2.29505" stroke-miterlimit="10" stroke-linecap="round" stroke-linejoin="round"/>
<path d="M158.654 308.849C158.654 308.849 161.752 308.849 161.752 312.406" stroke="black" stroke-width="2.29505" stroke-miterlimit="10" stroke-linecap="round" stroke-linejoin="round"/>
<path d="M162.555 305.291C162.555 305.291 169.785 303.455 167.604 294.045C166.457 289.111 179.883 300.013 187.571 292.898C195.375 285.669 171.621 276.833 171.965 281.652C172.424 288.193 159.457 278.783 162.555 305.291Z" fill="black" stroke="black" stroke-width="2.29505" stroke-miterlimit="10" stroke-linecap="round" stroke-linejoin="round"/>
<path d="M107.704 443.453C110.687 445.748 114.359 447.699 118.72 449.191" stroke="black" stroke-width="2.29505" stroke-miterlimit="10" stroke-linecap="round" stroke-linejoin="round"/>
<path d="M121.015 444.486C119.753 456.994 118.605 469.158 118.72 475.814" stroke="black" stroke-width="2.29505" stroke-miterlimit="10" stroke-linecap="round" stroke-linejoin="round"/>
<path d="M176.9 321.012C180.801 317.684 184.359 319.979 184.359 319.979C183.785 323.766 179.309 323.881 176.9 321.012ZM176.9 321.012C177.014 321.012 177.014 321.012 176.9 321.012ZM176.9 321.012C175.178 318.717 174.605 315.619 175.752 314.816C176.9 314.127 177.473 315.16 180.113 316.652C182.867 318.143 184.703 317.111 184.703 317.111" stroke="black" stroke-width="2.29505" stroke-miterlimit="10" stroke-linecap="round" stroke-linejoin="round"/>
<path d="M183.441 317.455C183.441 317.455 182.982 318.029 183.326 319.52C183.326 319.52 179.654 318.143 177.014 321.127C177.014 321.127 175.637 319.406 175.293 317.34C174.949 315.275 175.867 314.471 176.785 314.701C177.703 314.93 180.916 317.914 183.441 317.455Z" fill="black"/>
<path d="M175.981 304.603C175.981 304.603 176.67 307.013 176.211 307.472C175.752 307.931 175.408 305.521 175.637 304.947" stroke="black" stroke-width="2.29505" stroke-miterlimit="10" stroke-linecap="round" stroke-linejoin="round"/>
<path d="M184.358 303.799C184.358 303.799 185.047 306.209 184.588 306.668C184.129 307.127 183.785 304.718 184.014 304.144" stroke="black" stroke-width="2.29505" stroke-miterlimit="10" stroke-linecap="round" stroke-linejoin="round"/>
<path d="M48.7209 460.896C48.7209 460.896 43.3275 458.716 39.9997 469.617" stroke="black" stroke-width="2.29505" stroke-miterlimit="10" stroke-linecap="round" stroke-linejoin="round"/>
<path d="M52.9668 464.568C51.475 464.568 46.7702 466.404 44.3604 470.994" stroke="black" stroke-width="2.29505" stroke-miterlimit="10" stroke-linecap="round" stroke-linejoin="round"/>
<path d="M155.785 353.143C155.785 353.143 160.49 372.192 165.768 373.11C167.949 373.569 174.49 361.979 174.834 362.782C175.178 363.586 184.588 375.29 185.965 374.946C190.67 373.799 198.817 361.864 200.768 355.897" stroke="black" stroke-width="2.29505" stroke-miterlimit="10" stroke-linecap="round" stroke-linejoin="round"/>
<path d="M174.949 362.897C174.949 362.897 171.506 377.815 172.08 379.192C172.654 380.569 172.768 393.421 171.965 395.602" stroke="black" stroke-width="2.29505" stroke-miterlimit="10" stroke-linecap="round" stroke-linejoin="round"/>
<path d="M178.506 380.798C179.457 380.798 180.227 380.028 180.227 379.077C180.227 378.126 179.457 377.356 178.506 377.356C177.555 377.356 176.785 378.126 176.785 379.077C176.785 380.028 177.555 380.798 178.506 380.798Z" fill="black"/>
<path d="M178.506 388.372C179.457 388.372 180.227 387.601 180.227 386.651C180.227 385.7 179.457 384.93 178.506 384.93C177.555 384.93 176.785 385.7 176.785 386.651C176.785 387.601 177.555 388.372 178.506 388.372Z" fill="black"/>
<path d="M148.097 438.749C148.326 441.388 146.146 443.683 143.507 443.683H140.523C143.162 443.683 145.343 441.388 145.113 438.749L138.457 349.586C138.228 347.176 136.277 345.34 133.867 345.34H136.851C139.261 345.34 141.211 347.176 141.441 349.586L148.097 438.749Z" fill="black" stroke="black" stroke-width="2.29505" stroke-miterlimit="10" stroke-linecap="round" stroke-linejoin="round"/>
<path d="M55.147 443.683H13.2622C10.8524 443.683 8.78689 441.847 8.67214 439.437L2.01649 350.274C1.78698 347.635 3.96728 345.34 6.60659 345.34H133.867C136.277 345.34 138.343 347.176 138.457 349.586L145.113 438.749C145.343 441.388 143.162 443.683 140.523 443.683H81.8843" stroke="black" stroke-width="2.29505" stroke-miterlimit="10" stroke-linecap="round" stroke-linejoin="round"/>
<path d="M130.998 433.126H110.917L110.113 423.601H130.195L130.998 433.126Z" stroke="black" stroke-width="2.29505" stroke-miterlimit="10" stroke-linecap="round" stroke-linejoin="round"/>
<path d="M62.4912 402.257L52.9668 466.978C52.2782 471.568 55.8356 475.699 60.5404 475.699H121.015C119.409 472.142 115.851 469.961 111.95 469.961H83.8352C80.5074 469.961 77.8681 466.978 78.3271 463.65L85.9008 402.143H62.4912V402.257Z" stroke="black" stroke-width="2.29505" stroke-miterlimit="10" stroke-linecap="round" stroke-linejoin="round"/>
<path d="M255.505 475.814H199.391C196.178 475.814 193.653 473.289 193.653 470.076C193.653 466.863 196.178 464.338 199.391 464.338H255.505V475.814Z" stroke="black" stroke-width="2.29505" stroke-miterlimit="10" stroke-linecap="round" stroke-linejoin="round"/>
<path d="M204.784 468.584H255.505" stroke="black" stroke-width="2.29505" stroke-miterlimit="10" stroke-linecap="round" stroke-linejoin="round"/>
<path d="M246.669 463.076H190.555C187.342 463.076 184.818 460.552 184.818 457.339C184.818 454.126 187.342 451.601 190.555 451.601H246.669V463.076Z" stroke="black" stroke-width="2.29505" stroke-miterlimit="10" stroke-linecap="round" stroke-linejoin="round"/>
<path d="M195.948 455.847H246.669" stroke="black" stroke-width="2.29505" stroke-miterlimit="10" stroke-linecap="round" stroke-linejoin="round"/>
<path d="M500.043 424.29C501.764 418.782 504.863 412.7 503.945 408.913C502.568 403.405 507.961 405.011 507.961 405.011C507.961 405.011 519.666 415.569 534.125 411.208C534.125 411.208 537.223 411.208 535.961 416.601C535.157 419.929 534.584 421.077 533.895 425.667" stroke="black" stroke-width="2.29505" stroke-miterlimit="10" stroke-linecap="round" stroke-linejoin="round"/>
<path d="M40.344 475.814H39.1964C37.1309 475.814 35.6391 473.863 36.3276 471.912C36.5571 471.338 36.6719 470.765 37.0161 470.191" stroke="black" stroke-width="2.29505" stroke-miterlimit="10" stroke-linecap="round" stroke-linejoin="round"/>
<path d="M293.833 204.997C293.833 204.997 292.915 212.915 293.833 218.882" stroke="black" stroke-width="2.29505" stroke-miterlimit="10" stroke-linecap="round" stroke-linejoin="round"/>
<path d="M289.242 209.587C289.242 209.587 288.898 214.751 289.587 219.227" stroke="black" stroke-width="2.29505" stroke-miterlimit="10" stroke-linecap="round" stroke-linejoin="round"/>
<path d="M298.882 212.112C298.882 212.112 297.964 215.44 297.964 218.882L298.882 212.112Z" fill="white"/>
<path d="M298.882 212.112C298.882 212.112 297.964 215.44 297.964 218.882" stroke="black" stroke-width="2.29505" stroke-miterlimit="10" stroke-linecap="round" stroke-linejoin="round"/>
<path d="M380.7 471.338C401.815 466.863 406.634 445.749 406.634 445.749C406.634 445.749 436.126 447.699 459.421 445.749C459.421 445.749 460.109 448.503 462.519 450.683" stroke="black" stroke-width="2.29505" stroke-miterlimit="10" stroke-linecap="round" stroke-linejoin="round"/>
<path d="M307.832 211.883C307.832 211.883 307.144 216.932 307.259 219.456" stroke="black" stroke-width="2.29505" stroke-miterlimit="10" stroke-linecap="round" stroke-linejoin="round"/>
<path d="M342.488 100.687C325.275 136.72 321.488 150.031 321.488 150.031C316.668 149.228 309.324 148.998 300.029 148.998C291.078 148.998 285.57 149.113 282.128 149.342C282.242 146.703 281.21 136.72 266.292 112.966C253.784 92.8841 233.014 35.0488 290.275 27.2456C347.537 19.3277 360.618 62.8189 342.488 100.687Z" fill="#FFE843" stroke="#FFE843" stroke-width="2.29505" stroke-miterlimit="10" stroke-linecap="round" stroke-linejoin="round"/>
<path d="M321.488 150.031C327.799 150.375 329.406 154.277 324.586 156.916" stroke="black" stroke-width="2.29505" stroke-miterlimit="10" stroke-linecap="round" stroke-linejoin="round"/>
<path d="M277.193 150.375C277.193 150.375 277.193 149.572 282.013 149.342" stroke="black" stroke-width="2.29505" stroke-miterlimit="10" stroke-linecap="round" stroke-linejoin="round"/>
<path d="M276.046 152.326C276.046 152.326 271.57 156.572 282.128 157.949C301.98 160.588 319.078 155.883 324.357 158.981C329.635 162.195 325.619 167.244 320.111 167.588C314.603 168.047 291.767 168.965 281.21 166.555C276.619 165.522 272.833 160.358 280.521 157.604" stroke="black" stroke-width="2.29505" stroke-miterlimit="10" stroke-linecap="round" stroke-linejoin="round"/>
<path d="M282.013 166.785C282.013 166.785 279.144 171.719 283.275 174.129C287.406 176.539 305.537 175.621 314.029 175.621C323.897 175.621 323.897 170.916 322.52 168.162" stroke="black" stroke-width="2.29505" stroke-miterlimit="10" stroke-linecap="round" stroke-linejoin="round"/>
<path d="M292.685 175.621C292.685 175.621 294.177 181.244 301.062 181.932C309.898 182.735 311.963 175.621 311.963 175.621" stroke="black" stroke-width="2.29505" stroke-miterlimit="10" stroke-linecap="round" stroke-linejoin="round"/>
<path d="M301.177 46.7534C294.177 47.2124 288.898 53.2943 288.898 60.2942V79.3432C288.898 80.9497 290.275 82.3267 291.882 82.3267H295.324V76.3596H294.865V60.0647C294.865 56.2779 297.619 52.9501 301.406 52.6058C305.767 52.1468 309.324 55.5894 309.324 59.8352V63.0483C309.324 64.0811 310.127 64.8843 311.16 64.8843H313.455C314.488 64.8843 315.291 64.0811 315.291 63.0483V59.8352C315.291 52.2615 308.865 46.1796 301.177 46.7534Z" fill="black"/>
<path d="M319.996 75.6711C319.996 73.6055 318.39 71.999 316.324 71.999H287.865C285.8 71.999 284.193 73.6055 284.193 75.6711L281.21 104.13C281.21 106.195 283.161 107.802 285.57 107.802H318.734C321.144 107.802 322.98 106.195 322.98 104.13L319.996 75.6711ZM303.816 88.6381L304.619 95.2938C304.734 96.6708 303.701 97.8183 302.324 97.8183H302.095C300.833 97.8183 299.685 96.6708 299.8 95.4085L300.259 88.6381C298.652 87.8349 297.619 86.1136 298.078 84.1628C298.423 82.671 299.57 81.5235 301.062 81.1792C303.701 80.6054 305.996 82.5562 305.996 85.0808C306.111 86.5726 305.193 87.9496 303.816 88.6381Z" fill="black"/>
<path d="M379.438 138.326C381.044 142.228 379.208 146.703 375.422 148.31C371.52 149.916 367.045 148.195 365.438 144.293C364.061 140.966 365.094 137.293 367.848 135.228L360.274 117.212L366.471 115.376L367.274 117.212L364.75 118.474L365.094 119.392L367.274 118.818L367.848 120.195L366.241 122.146L371.176 133.851C374.389 133.162 378.061 134.998 379.438 138.326Z" fill="black"/>
<path d="M237.948 180.325C235.768 183.998 231.063 185.145 227.391 182.965C223.719 180.784 222.571 176.08 224.752 172.408C226.588 169.309 230.26 168.047 233.473 168.965L243.456 152.211L248.62 156.113L247.587 157.834L245.063 156.572L244.604 157.375L246.325 158.752L245.522 160.014L242.997 159.785L236.456 170.686C239.21 173.211 239.784 177.227 237.948 180.325Z" fill="black"/>
<path d="M302.095 15.1965C302.095 15.1965 301.865 7.62285 301.865 1.99997" stroke="black" stroke-width="2.29505" stroke-miterlimit="10" stroke-linecap="round" stroke-linejoin="round"/>
<path d="M357.52 46.6387C357.52 46.6387 364.176 42.8519 365.897 41.2453" stroke="black" stroke-width="2.29505" stroke-miterlimit="10" stroke-linecap="round" stroke-linejoin="round"/>
<path d="M275.013 20.1309C275.013 20.1309 272.489 16.3441 270.308 13.4753" stroke="black" stroke-width="2.29505" stroke-miterlimit="10" stroke-linecap="round" stroke-linejoin="round"/>
<path d="M240.587 64.1958C240.587 64.1958 232.784 63.0483 231.866 62.704" stroke="black" stroke-width="2.29505" stroke-miterlimit="10" stroke-linecap="round" stroke-linejoin="round"/>
<path d="M360.848 63.3927C360.848 63.3927 367.733 62.9337 370.143 62.5894" stroke="black" stroke-width="2.29505" stroke-miterlimit="10" stroke-linecap="round" stroke-linejoin="round"/>
<path d="M465.158 474.781C463.437 474.781 462.175 473.059 462.634 471.338C465.502 460.896 474.338 429.453 476.06 427.617C478.24 425.552 555.813 426.699 557.419 429.912C559.026 433.126 547.206 472.256 545.829 474.666C544.797 476.846 481.338 475.125 465.158 474.781Z" stroke="black" stroke-width="2.29505" stroke-miterlimit="10" stroke-linecap="round" stroke-linejoin="round"/>
<path d="M521.729 453.657C523.032 451.192 522.59 448.401 520.741 447.424C518.893 446.446 516.337 447.652 515.034 450.117C513.731 452.582 514.173 455.373 516.022 456.351C517.87 457.328 520.426 456.122 521.729 453.657Z" stroke="black" stroke-width="2.29505" stroke-miterlimit="10" stroke-linecap="round" stroke-linejoin="round"/>
<path d="M459.421 471.338C459.421 471.338 420.175 472.83 419.716 473.404C419.257 473.978 419.257 474.666 419.831 475.125C420.405 475.584 459.421 475.699 459.421 475.699" stroke="black" stroke-width="2.29505" stroke-miterlimit="10" stroke-linecap="round" stroke-linejoin="round"/>
<path d="M476.174 427.617C476.174 427.617 473.42 426.814 471.699 431.175C469.978 435.65 459.535 471.223 459.535 471.223" stroke="black" stroke-width="2.29505" stroke-miterlimit="10" stroke-linecap="round" stroke-linejoin="round"/>
<path d="M202.604 219.8C202.604 238.161 191.358 253.882 173.801 256.751C173.227 259.849 172.424 264.324 171.965 263.751C171.506 263.177 169.555 259.505 168.293 257.21H167.834C147.408 257.21 132.49 241.603 132.49 221.292C132.49 200.866 145.228 186.981 165.654 186.981C186.194 186.981 202.604 199.489 202.604 219.8Z" stroke="black" stroke-width="2.29505" stroke-miterlimit="10" stroke-linecap="round" stroke-linejoin="round"/>
<path d="M154.293 224.85C154.293 224.85 161.523 234.833 165.195 234.604C168.867 234.374 180.916 215.44 180.916 215.44C180.916 215.44 170.703 225.997 165.309 228.751C163.244 229.899 154.293 224.85 154.293 224.85Z" fill="#FF4560" stroke="#FF4560" stroke-width="2.29505" stroke-miterlimit="10" stroke-linecap="round" stroke-linejoin="round"/>
<path d="M397.684 219.8C397.684 238.161 408.929 253.882 426.487 256.751C427.06 259.849 427.864 264.324 428.323 263.751C428.782 263.177 430.732 259.505 431.995 257.21H432.454C452.88 257.21 467.798 241.603 467.798 221.292C467.798 200.866 455.06 186.981 434.634 186.981C414.208 186.981 397.684 199.489 397.684 219.8Z" stroke="black" stroke-width="2.29505" stroke-miterlimit="10" stroke-linecap="round" stroke-linejoin="round"/>
<path d="M419.372 224.85C419.372 224.85 426.601 234.833 430.273 234.604C433.945 234.374 445.994 215.44 445.994 215.44C445.994 215.44 435.781 225.997 430.388 228.751C428.437 229.899 419.372 224.85 419.372 224.85Z" fill="#FF4560" stroke="#FF4560" stroke-width="2.29505" stroke-miterlimit="10" stroke-linecap="round" stroke-linejoin="round"/>
<path d="M44.3604 489.928V507.944" stroke="black" stroke-width="2.29505" stroke-miterlimit="10" stroke-linecap="round" stroke-linejoin="round"/>
<path d="M56.6389 489.928V501.289L63.5241 498.879V489.928H56.6389Z" fill="black" stroke="black" stroke-width="2.29505" stroke-miterlimit="10" stroke-linecap="round" stroke-linejoin="round"/>
<path d="M536.879 489.928V507.944" stroke="black" stroke-width="2.29505" stroke-miterlimit="10" stroke-linecap="round" stroke-linejoin="round"/>
<path d="M524.715 489.928V501.289L517.83 498.879V489.928H524.715Z" fill="black" stroke="black" stroke-width="2.29505" stroke-miterlimit="10" stroke-linecap="round" stroke-linejoin="round"/>
</svg>
