<svg width="199" height="255" viewBox="0 0 199 255" fill="none" xmlns="http://www.w3.org/2000/svg">
<path d="M157.722 139.146C133.596 189.627 128.33 208.176 128.33 208.176C121.646 207.04 111.3 206.685 98.2432 206.685C85.7684 206.685 78.0196 206.913 73.2227 207.196C73.322 203.549 71.9454 189.456 51.1115 156.219C33.5275 128.175 4.5616 47.2522 84.6756 36.2392C164.79 25.2262 183.069 86.1526 157.722 139.146Z" fill="#FFE843" stroke="#FFE843" stroke-width="2.23279" stroke-linecap="round" stroke-linejoin="round"/>
<path d="M128.342 208.204C137.141 208.729 139.497 214.221 132.713 217.812" stroke="black" stroke-width="4" stroke-linecap="round" stroke-linejoin="round"/>
<path d="M66.4219 208.686C66.4219 208.686 66.3368 207.551 73.2341 207.182" stroke="black" stroke-width="4" stroke-linecap="round" stroke-linejoin="round"/>
<path d="M64.847 211.425C64.847 211.425 58.6309 217.357 73.3622 219.288C101.207 222.935 125.106 216.336 132.472 220.707C139.838 225.078 134.232 232.188 126.582 232.77C118.933 233.352 86.8447 234.743 72.085 231.351C65.656 229.861 60.3056 222.708 71.205 218.876" stroke="black" stroke-width="4" stroke-linecap="round" stroke-linejoin="round"/>
<path d="M73.1648 231.606C73.1648 231.606 69.191 238.532 74.882 241.867C80.573 245.202 106.104 244.024 117.884 244.024C131.707 244.024 131.721 237.396 129.748 233.607" stroke="black" stroke-width="4" stroke-linecap="round" stroke-linejoin="round"/>
<path d="M88.0942 244.025C88.0942 244.025 90.1237 251.944 99.8168 252.866C112.192 254.044 115.13 244.025 115.13 244.025" stroke="black" stroke-width="4" stroke-linecap="round" stroke-linejoin="round"/>
<path d="M98.9463 56.324C93.5515 56.806 88.5381 59.3073 84.9103 63.3271C81.2825 67.3468 79.3082 72.5881 79.3829 78.001V108.563C79.3829 109.814 79.8803 111.014 80.7655 111.899C81.6508 112.784 82.8515 113.281 84.1034 113.281H88.8239V103.699V77.7578C88.7729 74.8244 89.8077 71.9755 91.7299 69.7581C93.652 67.5407 96.3259 66.1112 99.2383 65.7439C100.844 65.588 102.464 65.7692 103.996 66.2756C105.527 66.7821 106.936 67.6026 108.132 68.6848C109.328 69.767 110.284 71.0869 110.94 72.56C111.595 74.033 111.936 75.6267 111.94 77.239V82.2975C111.94 83.0673 112.246 83.8054 112.79 84.3497C113.335 84.8939 114.073 85.1997 114.844 85.1997H118.477C119.247 85.1997 119.986 84.8939 120.53 84.3497C121.075 83.8054 121.381 83.0673 121.381 82.2975V77.239C121.365 74.3678 120.762 71.5302 119.609 68.9003C118.456 66.2704 116.778 63.9036 114.677 61.9451C112.576 59.9867 110.097 58.4779 107.392 57.5113C104.687 56.5447 101.813 56.1406 98.9463 56.324Z" fill="black"/>
<path d="M127.647 114.155C127.647 112.597 127.032 111.103 125.936 110.002C124.841 108.9 123.355 108.281 121.806 108.281H76.8754C75.329 108.285 73.8475 108.906 72.7556 110.007C71.6636 111.109 71.0504 112.6 71.0504 114.155L66.3809 159.423C66.3809 162.651 69.4297 165.281 73.1846 165.281H125.593C129.332 165.281 132.381 162.651 132.381 159.423L127.647 114.155ZM101.972 134.683L103.224 145.205C103.285 145.712 103.239 146.226 103.088 146.713C102.937 147.2 102.685 147.649 102.348 148.031C102.011 148.412 101.597 148.717 101.134 148.926C100.671 149.134 100.169 149.241 99.6617 149.24H99.2445C98.7514 149.239 98.2638 149.136 97.8119 148.937C97.3601 148.739 96.9537 148.449 96.6181 148.085C96.2825 147.722 96.0247 147.293 95.861 146.826C95.6972 146.358 95.6308 145.861 95.666 145.367L96.4523 134.667C95.1652 134.039 94.1279 132.99 93.51 131.693C92.8921 130.395 92.7302 128.925 93.0506 127.522C93.371 126.12 94.1548 124.869 95.2741 123.972C96.3933 123.076 97.7817 122.588 99.2124 122.588C100.643 122.588 102.031 123.076 103.151 123.972C104.27 124.869 105.054 126.12 105.374 127.522C105.695 128.925 105.533 130.395 104.915 131.693C104.297 132.99 103.26 134.039 101.972 134.667V134.683Z" fill="black"/>
<path d="M101.192 21.549C101.192 21.549 100.809 10.8908 100.894 3" stroke="black" stroke-width="5" stroke-linecap="round" stroke-linejoin="round"/>
<path d="M178.724 63.5728C178.724 63.5728 188.09 58.2934 190.361 56.051" stroke="black" stroke-width="5" stroke-linecap="round" stroke-linejoin="round"/>
<path d="M63.4001 26.475C63.4001 26.475 59.8521 21.1529 56.8008 17.0798" stroke="black" stroke-width="5" stroke-linecap="round" stroke-linejoin="round"/>
<path d="M15.1768 88.054C15.1768 88.054 4.26309 86.3794 3 85.9536" stroke="black" stroke-width="5" stroke-linecap="round" stroke-linejoin="round"/>
<path d="M183.366 86.9895C183.366 86.9895 193.017 86.3651 196.38 85.9393" stroke="black" stroke-width="5" stroke-linecap="round" stroke-linejoin="round"/>
</svg>
