<svg width="138" height="179" viewBox="0 0 138 179" fill="none" xmlns="http://www.w3.org/2000/svg">
<path d="M109.667 98.1682C92.8717 133.31 89.2064 146.223 89.2064 146.223C84.5531 145.432 77.3509 145.185 68.2616 145.185C59.5775 145.185 54.1832 145.343 50.8439 145.541C50.9131 143.002 49.9548 133.191 35.4515 110.053C23.2107 90.5313 3.04648 34.1979 58.8168 26.5313C114.587 18.8647 127.312 61.2778 109.667 98.1682Z" fill="#FFE843" stroke="#FFE843" stroke-width="2.23279" stroke-linecap="round" stroke-linejoin="round"/>
<path d="M89.2144 146.242C95.3397 146.607 96.9797 150.431 92.2573 152.93" stroke="black" stroke-width="2.23279" stroke-linecap="round" stroke-linejoin="round"/>
<path d="M46.1099 146.578C46.1099 146.578 46.0506 145.787 50.8521 145.531" stroke="black" stroke-width="2.23279" stroke-linecap="round" stroke-linejoin="round"/>
<path d="M45.0134 148.485C45.0134 148.485 40.6861 152.614 50.9411 153.958C70.3249 156.497 86.9621 151.903 92.0896 154.946C97.2171 157.989 93.3147 162.938 87.9896 163.344C82.6645 163.749 60.3267 164.717 50.052 162.356C45.5765 161.318 41.8519 156.339 49.4394 153.671" stroke="black" stroke-width="2.23279" stroke-linecap="round" stroke-linejoin="round"/>
<path d="M50.8036 162.533C50.8036 162.533 48.0373 167.354 51.999 169.676C55.9608 171.998 73.7341 171.178 81.9342 171.178C91.5569 171.178 91.5668 166.564 90.1935 163.926" stroke="black" stroke-width="2.23279" stroke-linecap="round" stroke-linejoin="round"/>
<path d="M61.1968 171.178C61.1968 171.178 62.6096 176.691 69.3573 177.333C77.9723 178.153 80.0174 171.178 80.0174 171.178" stroke="black" stroke-width="2.23279" stroke-linecap="round" stroke-linejoin="round"/>
<path d="M69.916 38.5C66.6304 38.7937 63.5771 40.3179 61.3676 42.7674C59.1582 45.2168 57.9558 48.4106 58.0012 51.709V70.332C58.0012 71.0945 58.3041 71.8258 58.8433 72.3649C59.3825 72.9041 60.1137 73.207 60.8762 73.207H63.7512V67.3682V51.5608C63.7201 49.7733 64.3503 48.0373 65.521 46.6861C66.6916 45.335 68.3202 44.4638 70.0939 44.24C71.0717 44.1451 72.0586 44.2555 72.9914 44.5641C73.9241 44.8727 74.7821 45.3727 75.5103 46.0321C76.2386 46.6916 76.8211 47.4959 77.2204 48.3935C77.6198 49.2911 77.8273 50.2622 77.8296 51.2447V54.3271C77.8296 54.7961 78.0159 55.2459 78.3476 55.5776C78.6792 55.9092 79.129 56.0955 79.598 56.0955H81.8111C82.2801 56.0955 82.7299 55.9092 83.0615 55.5776C83.3932 55.2459 83.5795 54.7961 83.5795 54.3271V51.2447C83.5696 49.4951 83.2024 47.766 82.5003 46.1634C81.7982 44.5609 80.7761 43.1187 79.4967 41.9253C78.2173 40.7319 76.7075 39.8125 75.06 39.2235C73.4125 38.6345 71.6621 38.3883 69.916 38.5Z" fill="black"/>
<path d="M87.8028 73.8445C87.8028 72.8907 87.4239 71.976 86.7495 71.3016C86.0751 70.6272 85.1604 70.2483 84.2066 70.2483H56.5438C55.5917 70.2509 54.6796 70.6309 54.0073 71.3051C53.335 71.9792 52.9575 72.8924 52.9575 73.8445L50.0825 101.557C50.0825 103.533 51.9596 105.143 54.2715 105.143H86.5382C88.8401 105.143 90.7173 103.533 90.7173 101.557L87.8028 73.8445ZM71.9954 86.4113L72.766 92.8528C72.8039 93.1629 72.7753 93.4774 72.6823 93.7756C72.5893 94.0738 72.4339 94.3488 72.2265 94.5824C72.0191 94.816 71.7644 95.0028 71.4793 95.1304C71.1941 95.258 70.8852 95.3236 70.5728 95.3227H70.3159C70.0123 95.3221 69.7121 95.2591 69.4339 95.1375C69.1558 95.0159 68.9056 94.8384 68.6989 94.616C68.4923 94.3936 68.3336 94.1311 68.2328 93.8448C68.1319 93.5584 68.0911 93.2544 68.1128 92.9516L68.5969 86.4014C67.8044 86.0169 67.1658 85.3749 66.7853 84.5805C66.4049 83.786 66.3052 82.886 66.5025 82.0276C66.6998 81.1691 67.1824 80.4029 67.8714 79.8542C68.5605 79.3056 69.4153 79.0068 70.2962 79.0068C71.177 79.0068 72.0318 79.3056 72.7209 79.8542C73.4099 80.4029 73.8926 81.1691 74.0898 82.0276C74.2871 82.886 74.1874 83.786 73.807 84.5805C73.4265 85.3749 72.7879 86.0169 71.9954 86.4014V86.4113Z" fill="black"/>
<path d="M70.3147 14.9126C70.3147 14.9126 70.048 7.49305 70.1072 2" stroke="black" stroke-width="2.23279" stroke-linecap="round" stroke-linejoin="round"/>
<path d="M124.287 45.5592C124.287 45.5592 130.808 41.884 132.388 40.323" stroke="black" stroke-width="2.23279" stroke-linecap="round" stroke-linejoin="round"/>
<path d="M44.0061 19.734C44.0061 19.734 41.5362 16.0292 39.4121 13.1937" stroke="black" stroke-width="2.23279" stroke-linecap="round" stroke-linejoin="round"/>
<path d="M10.4362 62.6015C10.4362 62.6015 2.83876 61.4357 1.95947 61.1393" stroke="black" stroke-width="2.23279" stroke-linecap="round" stroke-linejoin="round"/>
<path d="M127.519 61.8605C127.519 61.8605 134.237 61.4258 136.579 61.1294" stroke="black" stroke-width="2.23279" stroke-linecap="round" stroke-linejoin="round"/>
</svg>
