<svg width="531" height="412" viewBox="0 0 531 412" fill="none" xmlns="http://www.w3.org/2000/svg">
<path d="M196.965 301.155L183.883 300.122C183.883 300.122 160.014 277.287 192.604 257.779C192.604 258.697 192.719 259.615 192.948 260.762C193.522 263.631 194.784 290.598 196.965 301.155Z" fill="#E9EFF4"/>
<path d="M266.505 234.828C266.046 240.221 265.128 251.352 264.669 257.779C261.8 258.238 239.538 262.139 225.997 283.942L225.194 284.401C223.014 276.713 220.604 268.451 220.03 266.041C218.883 261.451 221.522 258.926 220.26 256.057C218.997 253.188 217.161 253.533 216.243 252.844C215.784 252.5 216.128 249.861 216.473 247.451C231.046 242.402 248.718 237.926 266.505 234.828Z" fill="#E9EFF4"/>
<path d="M394.339 275.565C389.061 280.959 375.979 295.991 372.766 314.467C371.848 311.712 367.602 300.122 360.717 288.303C352.799 274.647 342.127 262.139 312.406 255.713V255.943C312.062 246.762 311.488 235.287 311.258 230.123C333.061 229.779 350.16 233.222 354.291 242.631C365.422 267.647 352.914 272.238 379.077 268.91C389.061 267.647 393.077 270.975 394.339 275.565Z" fill="#E9EFF4"/>
<path d="M316.078 47.7813C305.521 69.9286 303.111 78.076 303.111 78.076C300.127 77.617 295.652 77.3875 289.914 77.3875C284.406 77.3875 281.078 77.5023 278.898 77.617C278.898 76.0105 278.324 69.8138 269.144 55.2402C261.456 42.9617 248.718 7.38838 283.947 2.56876C319.176 -2.25085 327.209 24.4865 316.078 47.7813Z" fill="#FFE843" stroke="#FFE843" stroke-width="2.29505" stroke-miterlimit="10" stroke-linecap="round" stroke-linejoin="round"/>
<path d="M278.898 77.7318C278.898 78.076 278.898 78.1908 278.898 78.1908" stroke="black" stroke-width="2.29505" stroke-miterlimit="10" stroke-linecap="round" stroke-linejoin="round"/>
<path d="M303.111 78.1907C307.013 78.8792 308.045 80.1415 305.062 82.4365" stroke="black" stroke-width="2.29505" stroke-miterlimit="10" stroke-linecap="round" stroke-linejoin="round"/>
<path d="M275.57 78.076C275.57 78.076 275.915 77.8465 278.898 77.7318" stroke="black" stroke-width="2.29505" stroke-miterlimit="10" stroke-linecap="round" stroke-linejoin="round"/>
<path d="M275.57 79.912C275.57 79.912 272.587 82.207 279.013 83.0103C291.291 84.6168 301.734 81.748 304.947 83.6988C308.16 85.6496 305.75 88.7479 302.308 88.9774C298.98 89.2069 284.865 89.8955 278.324 88.2889C275.456 87.6004 273.161 84.5021 277.98 82.7808" stroke="black" stroke-width="2.29505" stroke-miterlimit="10" stroke-linecap="round" stroke-linejoin="round"/>
<path d="M278.898 88.4038C278.898 88.4038 277.177 91.5022 279.701 92.8792C282.226 94.371 293.472 93.7972 298.636 93.7972C304.718 93.7972 304.718 90.9284 303.799 89.2071" stroke="black" stroke-width="2.29505" stroke-miterlimit="10" stroke-linecap="round" stroke-linejoin="round"/>
<path d="M285.439 93.912C285.439 93.912 286.357 97.3546 290.603 97.8136C295.996 98.3874 297.373 93.912 297.373 93.912" stroke="black" stroke-width="2.29505" stroke-miterlimit="10" stroke-linecap="round" stroke-linejoin="round"/>
<path d="M284.177 76.4695C284.177 76.4695 283.833 69.0106 280.16 58.5681C276.488 48.1256 281.537 44.4535 284.177 46.5191C286.816 48.5846 288.537 52.3715 286.587 55.1255C284.636 57.8796 283.259 47.3224 288.193 45.9453C293.127 44.5683 296.914 48.9289 296.341 53.4043C295.767 57.8796 292.669 54.6665 292.669 50.4207C292.669 46.2896 298.636 43.1913 301.619 47.3224C304.603 51.4535 298.98 61.7812 298.291 76.4695" stroke="black" stroke-width="2.29505" stroke-miterlimit="10" stroke-linecap="round" stroke-linejoin="round"/>
<path d="M60.6386 376.662C-2.93437 386.646 6.13108 338.909 32.7537 293.581C59.3763 248.254 91.9661 253.418 91.9661 253.418C91.9661 253.418 91.9661 250.779 90.3595 248.484C87.835 244.926 88.6383 241.254 91.9661 241.828C97.8185 242.746 105.851 242.746 105.851 242.746C105.851 242.746 123.753 254.221 134.884 240.795C146.015 227.254 137.638 207.976 137.638 206.369C137.638 204.763 159.555 204.878 158.293 203.501C158.293 203.501 117.556 153.583 95.8677 165.058C82.2121 172.288 89.671 196.73 89.671 196.73C89.671 196.73 85.7694 191.107 80.3761 194.091C74.0647 197.533 80.0318 207.976 89.671 206.369" stroke="black" stroke-width="2.29505" stroke-miterlimit="10" stroke-linecap="round" stroke-linejoin="round"/>
<path d="M89.9005 206.255L92.0808 241.713" stroke="black" stroke-width="2.29505" stroke-miterlimit="10" stroke-linecap="round" stroke-linejoin="round"/>
<path d="M133.162 242.631C133.162 242.631 134.539 248.828 131.67 253.189C130.752 254.68 153.818 260.762 175.506 298.401" stroke="black" stroke-width="2.29505" stroke-miterlimit="10" stroke-linecap="round" stroke-linejoin="round"/>
<path d="M85.4252 200.517C85.4252 200.517 87.6055 199.599 89.4415 202.124" stroke="black" stroke-width="2.29505" stroke-miterlimit="10" stroke-linecap="round" stroke-linejoin="round"/>
<path d="M97.2447 244.353C97.2447 244.353 97.2447 246.074 98.3922 248.484" stroke="black" stroke-width="2.29505" stroke-miterlimit="10" stroke-linecap="round" stroke-linejoin="round"/>
<path d="M109.064 245.385C109.064 245.385 109.408 247.107 109.638 248.943" stroke="black" stroke-width="2.29505" stroke-miterlimit="10" stroke-linecap="round" stroke-linejoin="round"/>
<path d="M120.195 247.451C120.195 247.451 120.31 249.287 120.195 250.205" stroke="black" stroke-width="2.29505" stroke-miterlimit="10" stroke-linecap="round" stroke-linejoin="round"/>
<path d="M127.998 245.959C127.998 245.959 128.457 247.91 127.998 248.828" stroke="black" stroke-width="2.29505" stroke-miterlimit="10" stroke-linecap="round" stroke-linejoin="round"/>
<path d="M89.9006 196.501C89.9006 196.501 96.212 195.927 97.589 179.976C97.589 179.976 102.409 164.714 107.572 182.96L131.556 177.452C131.556 177.452 128.572 161.157 110.9 158.747C93.2284 156.337 81.2941 167.927 83.8187 183.649C85.54 193.288 89.9006 196.501 89.9006 196.501Z" fill="black" stroke="black" stroke-width="2.29505" stroke-miterlimit="10" stroke-linecap="round" stroke-linejoin="round"/>
<path d="M93.9169 164.944C93.9169 164.944 90.3595 149.911 73.2614 152.78C58.4583 155.19 56.5075 171.255 60.5238 183.419C65.9172 199.484 55.7042 206.369 55.7042 206.369C55.7042 206.369 71.1958 204.533 73.7204 188.697C75.6712 176.878 76.3597 165.747 85.9989 168.731" fill="black"/>
<path d="M93.9169 164.944C93.9169 164.944 90.3595 149.911 73.2614 152.78C58.4583 155.19 56.5075 171.255 60.5238 183.419C65.9172 199.484 55.7042 206.369 55.7042 206.369C55.7042 206.369 71.1958 204.533 73.7204 188.697C75.6712 176.878 76.3597 165.747 85.9989 168.731" stroke="black" stroke-width="2.29505" stroke-miterlimit="10" stroke-linecap="round" stroke-linejoin="round"/>
<path d="M113.425 197.878C113.425 197.878 114.228 202.239 113.425 202.812C112.622 203.386 112.392 199.255 112.851 198.337" stroke="black" stroke-width="2.29505" stroke-miterlimit="10" stroke-linecap="round" stroke-linejoin="round"/>
<path d="M127.539 196.616C127.539 196.616 128.343 200.976 127.539 201.55C126.736 202.124 126.507 197.993 126.966 197.075" stroke="black" stroke-width="2.29505" stroke-miterlimit="10" stroke-linecap="round" stroke-linejoin="round"/>
<path d="M113.769 221.517C118.474 220.599 121.687 222.435 121.687 222.435C121.687 222.435 122.49 228.287 117.556 226.681C115.72 225.992 114.458 223.812 113.769 221.517ZM113.769 221.517C112.736 218.304 112.736 215.091 113.31 215.55C118.13 220.025 122.376 217.73 122.376 217.73" stroke="black" stroke-width="2.29505" stroke-miterlimit="10" stroke-linecap="round" stroke-linejoin="round"/>
<path d="M77.2777 293.352C77.2777 293.352 83.1301 297.827 79.5728 299.893C76.0154 301.958 63.1631 328.237 60.7533 335.122C58.3435 342.007 50.6551 347.63 45.2617 345.909C39.8684 344.073 47.3273 336.155 126.736 350.728" stroke="black" stroke-width="2.29505" stroke-miterlimit="10" stroke-linecap="round" stroke-linejoin="round"/>
<path d="M66.2614 375.859L126.392 374.367C128.916 374.253 131.097 372.531 131.67 370.007L147.162 305.057C147.736 302.647 149.916 301.041 152.326 301.041L238.161 302.991C239.767 302.991 240.915 304.598 240.456 306.09L220.948 375.63C220.26 378.04 218.079 379.646 215.555 379.646H64.6549" stroke="black" stroke-width="2.29505" stroke-miterlimit="10" stroke-linecap="round" stroke-linejoin="round"/>
<path d="M150.949 305.86L136.261 374.367C135.572 377.58 132.818 379.761 129.49 379.761H121.917" stroke="black" stroke-width="2.29505" stroke-miterlimit="10" stroke-linecap="round" stroke-linejoin="round"/>
<path d="M199.731 344.467C201.943 341.374 201.856 337.521 199.536 335.862C197.216 334.203 193.542 335.366 191.331 338.459C189.119 341.552 189.206 345.404 191.526 347.063C193.845 348.722 197.519 347.56 199.731 344.467Z" stroke="black" stroke-width="2.29505" stroke-miterlimit="10" stroke-linecap="round" stroke-linejoin="round"/>
<path d="M150.949 277.516C150.949 277.516 150.605 281.074 155.883 288.877C161.162 296.68 161.277 301.155 161.277 301.155" stroke="black" stroke-width="2.29505" stroke-miterlimit="10" stroke-linecap="round" stroke-linejoin="round"/>
<path d="M262.833 257.778C262.833 257.778 245.735 259.959 230.473 277.516C216.702 293.352 229.784 300.122 228.522 296.335C228.522 296.335 223.014 279.122 220.145 266.041C219.112 261.45 220.604 259.729 220.604 258.123C220.604 253.992 218.768 253.418 216.473 253.418C213.26 253.418 207.178 259.385 193.981 254.565C193.981 254.565 191.571 255.139 192.948 261.336C194.325 267.532 194.555 286.696 196.62 298.286" stroke="black" stroke-width="2.29505" stroke-miterlimit="10" stroke-linecap="round" stroke-linejoin="round"/>
<path d="M193.981 254.795C193.981 254.795 192.834 246.188 189.047 237.008C185.375 227.828 186.408 223.926 190.309 222.435C194.211 220.943 198.916 222.435 198.916 227.598C198.916 234.713 193.752 239.533 193.293 228.746" stroke="black" stroke-width="2.29505" stroke-miterlimit="10" stroke-linecap="round" stroke-linejoin="round"/>
<path d="M191.457 222.09C191.457 222.09 191.227 216.582 195.817 216.467C200.293 216.238 204.194 220.828 205.112 223.582C206.03 226.336 204.079 232.992 201.555 233.336C199.03 233.795 198.571 231.385 198.571 231.385" stroke="black" stroke-width="2.29505" stroke-miterlimit="10" stroke-linecap="round" stroke-linejoin="round"/>
<path d="M198.112 216.697C198.112 216.697 197.998 213.828 201.555 212.451C204.653 211.189 208.211 212.566 210.276 214.746C213.948 218.763 213.374 225.992 209.702 224.845C206.03 223.697 206.03 218.189 205.112 219.795" stroke="black" stroke-width="2.29505" stroke-miterlimit="10" stroke-linecap="round" stroke-linejoin="round"/>
<path d="M204.079 211.992C204.079 211.992 205.342 200.058 208.096 194.665C210.85 189.271 214.981 192.14 213.26 198.681C211.883 203.845 211.424 215.55 211.424 215.55" stroke="black" stroke-width="2.29505" stroke-miterlimit="10" stroke-linecap="round" stroke-linejoin="round"/>
<path d="M212.915 225.418C214.522 226.566 216.587 225.533 217.964 221.746C219.342 217.959 218.309 214.861 221.407 214.746C224.505 214.632 225.538 219.91 224.161 225.877C222.899 231.845 220.26 234.943 218.653 238.5C216.243 243.894 215.784 252.73 215.784 252.73" stroke="black" stroke-width="2.29505" stroke-miterlimit="10" stroke-linecap="round" stroke-linejoin="round"/>
<path d="M79.5728 295.647C79.5728 295.647 83.4744 298.401 85.4251 293.352" stroke="black" stroke-width="2.29505" stroke-miterlimit="10" stroke-linecap="round" stroke-linejoin="round"/>
<path d="M468.584 202.927C468.584 202.927 471.912 194.894 477.879 196.845C483.846 198.796 481.207 210.96 473.289 211.189" stroke="black" stroke-width="2.29505" stroke-miterlimit="10" stroke-linecap="round" stroke-linejoin="round"/>
<path d="M426.355 231.5L427.503 217.271L405.7 217.615L430.257 187.435" stroke="black" stroke-width="2.29505" stroke-miterlimit="10" stroke-linecap="round" stroke-linejoin="round"/>
<path d="M482.928 311.024C484.994 300.811 488.207 304.368 490.273 296.106" stroke="black" stroke-width="2.29505" stroke-miterlimit="10" stroke-linecap="round" stroke-linejoin="round"/>
<path d="M501.174 345.105C501.174 345.105 497.846 335.696 488.551 320.663C486.141 316.876 482.125 309.876 477.765 301.614C477.765 301.614 477.765 301.499 477.65 301.499" stroke="black" stroke-width="2.29505" stroke-miterlimit="10" stroke-linecap="round" stroke-linejoin="round"/>
<path d="M425.552 227.828C425.552 227.828 427.044 240.795 435.995 245.73C441.273 248.713 448.503 247.681 452.404 245.271C457.912 242.058 459.519 237.468 462.847 235.402C467.093 232.877 467.896 237.927 463.535 246.303C460.552 251.926 459.748 255.598 462.388 263.746C463.65 267.533 465.142 275.106 468.24 285.319" stroke="black" stroke-width="2.29505" stroke-miterlimit="10" stroke-linecap="round" stroke-linejoin="round"/>
<path d="M424.978 227.369C424.978 227.369 423.946 226.795 422.454 228.402C420.847 230.123 418.667 241.599 430.257 248.828" stroke="black" stroke-width="2.29505" stroke-miterlimit="10" stroke-linecap="round" stroke-linejoin="round"/>
<path d="M421.65 238.959C421.65 238.959 418.437 240.566 420.159 244.697C421.765 248.713 424.634 251.238 430.257 254.221" stroke="black" stroke-width="2.29505" stroke-miterlimit="10" stroke-linecap="round" stroke-linejoin="round"/>
<path d="M422.339 248.369C422.339 248.369 420.159 251.467 422.798 254.451C425.437 257.434 430.716 258.811 430.716 258.811" stroke="black" stroke-width="2.29505" stroke-miterlimit="10" stroke-linecap="round" stroke-linejoin="round"/>
<path d="M422.109 253.418C420.273 252.959 418.667 252.73 417.634 253.418C415.11 255.139 422.568 260.189 429.109 262.713C435.995 265.238 438.634 268.336 442.765 281.533C443.683 284.401 444.601 288.188 445.634 292.778" stroke="black" stroke-width="2.29505" stroke-miterlimit="10" stroke-linecap="round" stroke-linejoin="round"/>
<path d="M473.289 211.189C473.289 211.189 476.158 245.615 476.502 246.648C476.846 247.68 479.142 242.287 480.519 246.648C481.896 251.008 508.289 256.861 521.715 272.811C535.141 288.877 529.403 330.647 515.403 355.089C501.748 378.843 476.043 393.187 460.896 349.466C455.732 334.434 452.175 321.122 449.65 310.106" stroke="black" stroke-width="2.29505" stroke-miterlimit="10" stroke-linecap="round" stroke-linejoin="round"/>
<path d="M417.175 257.779C417.175 257.779 391.585 270.057 376.094 302.532" stroke="black" stroke-width="2.29505" stroke-miterlimit="10" stroke-linecap="round" stroke-linejoin="round"/>
<path d="M412.011 330.073C408.798 316.188 409.831 306.09 409.831 306.09C409.831 306.09 402.716 308.614 409.716 298.401" stroke="black" stroke-width="2.29505" stroke-miterlimit="10" stroke-linecap="round" stroke-linejoin="round"/>
<path d="M383.667 332.598C383.667 332.598 406.503 334.434 452.519 329.729" stroke="black" stroke-width="2.29505" stroke-miterlimit="10" stroke-linecap="round" stroke-linejoin="round"/>
<path d="M462.502 354.745C462.502 354.745 413.274 373.335 390.897 372.187" stroke="black" stroke-width="2.29505" stroke-miterlimit="10" stroke-linecap="round" stroke-linejoin="round"/>
<path d="M449.65 310.335C449.65 310.335 448.044 303.221 444.027 300.237C440.011 297.254 445.634 292.778 445.634 292.778C445.634 292.778 457.453 294.5 468.24 285.549C468.24 285.549 472.715 283.942 473.06 288.303C473.404 292.778 477.076 300.352 477.765 301.614" stroke="black" stroke-width="2.29505" stroke-miterlimit="10" stroke-linecap="round" stroke-linejoin="round"/>
<path d="M476.502 246.648C476.502 246.648 473.174 255.025 464.338 255.025" stroke="black" stroke-width="2.29505" stroke-miterlimit="10" stroke-linecap="round" stroke-linejoin="round"/>
<path d="M474.207 203.845C474.207 203.845 471.797 204.189 472.142 206.714" stroke="black" stroke-width="2.29505" stroke-miterlimit="10" stroke-linecap="round" stroke-linejoin="round"/>
<path d="M473.174 197.419C470.191 199.14 468.584 203.042 468.584 203.042C457.339 199.14 456.306 183.878 456.306 183.878C445.634 194.321 436.454 183.878 436.454 183.878C435.191 189.73 430.257 187.55 430.257 187.55L426.585 192.026C425.896 191.567 422.683 189.271 423.372 183.878C423.946 178.944 429.224 177.681 430.372 178.026C431.519 178.37 424.978 170.223 433.011 164.485C439.781 159.665 446.093 166.665 446.093 166.665C446.093 166.665 448.503 161.616 456.994 161.616C464.338 161.616 468.929 167.468 468.584 175.501C468.584 175.501 475.928 175.845 477.765 181.354C478.683 184.222 476.617 189.616 473.174 190.993C470.879 192.025 473.633 197.075 473.174 197.419Z" fill="black" stroke="black" stroke-width="2.29505" stroke-miterlimit="10" stroke-linecap="round" stroke-linejoin="round"/>
<path d="M436.339 203.271C436.339 203.271 437.027 207.632 436.224 208.206C435.421 208.779 435.306 204.648 435.765 203.73" stroke="black" stroke-width="2.29505" stroke-miterlimit="10" stroke-linecap="round" stroke-linejoin="round"/>
<path d="M450.339 202.353C450.339 202.353 451.027 206.714 450.224 207.288C449.421 207.861 449.306 203.73 449.765 202.812" stroke="black" stroke-width="2.29505" stroke-miterlimit="10" stroke-linecap="round" stroke-linejoin="round"/>
<path d="M287.505 198.796C287.505 198.796 288.078 203.156 287.275 203.73C286.472 204.304 286.472 200.173 287.046 199.255" stroke="black" stroke-width="2.29505" stroke-miterlimit="10" stroke-linecap="round" stroke-linejoin="round"/>
<path d="M301.619 198.337C301.619 198.337 302.193 202.697 301.39 203.271C300.586 203.845 300.586 199.714 301.16 198.796" stroke="black" stroke-width="2.29505" stroke-miterlimit="10" stroke-linecap="round" stroke-linejoin="round"/>
<path d="M269.029 204.533C269.029 204.533 265.816 242.861 265.013 253.992" stroke="black" stroke-width="2.29505" stroke-miterlimit="10" stroke-linecap="round" stroke-linejoin="round"/>
<path d="M265.013 257.779C265.013 257.779 292.439 271.09 312.406 258.238" stroke="black" stroke-width="2.29505" stroke-miterlimit="10" stroke-linecap="round" stroke-linejoin="round"/>
<path d="M358.881 332.942C350.733 330.647 330.766 322.614 319.635 318.024C318.832 317.68 317.226 315.155 315.734 314.581C312.635 313.434 311.488 314.581 311.488 314.581C316.537 329.155 304.603 335.811 304.603 335.811C303.8 336.499 304.144 339.024 305.406 339.942C307.586 341.433 310.34 340.974 311.603 341.892C353.373 377.007 383.438 375.63 383.782 354.63C384.012 338.679 366.569 293.926 353.487 276.942C340.406 260.074 312.635 255.713 312.635 255.713" stroke="black" stroke-width="2.29505" stroke-miterlimit="10" stroke-linecap="round" stroke-linejoin="round"/>
<path d="M330.652 303.909C329.619 311.827 331.684 309.876 334.783 311.713C337.996 313.549 339.373 326.401 339.373 326.401" stroke="black" stroke-width="2.29505" stroke-miterlimit="10" stroke-linecap="round" stroke-linejoin="round"/>
<path d="M260.538 260.762C260.538 260.762 271.095 275.795 280.046 277.057C281.882 277.287 290.373 270.057 290.373 270.057C290.373 270.057 297.373 276.828 300.472 277.057C303.685 277.287 313.783 268.91 316.881 261.68" stroke="black" stroke-width="2.29505" stroke-miterlimit="10" stroke-linecap="round" stroke-linejoin="round"/>
<path d="M270.636 193.747C270.636 193.747 263.521 187.78 258.243 193.173C252.964 198.566 258.816 208.435 269.029 204.533" stroke="black" stroke-width="2.29505" stroke-miterlimit="10" stroke-linecap="round" stroke-linejoin="round"/>
<path d="M265.243 198.222C265.472 197.992 268.456 197.419 269.259 199.829" stroke="black" stroke-width="2.29505" stroke-miterlimit="10" stroke-linecap="round" stroke-linejoin="round"/>
<path d="M311.488 314.581C311.488 314.581 305.406 310.794 302.767 306.548C300.127 302.417 304.029 290.024 299.668 284.745C295.767 280.041 289.685 279.582 288.423 279.582C286.013 279.696 281.767 281.877 292.439 285.893" stroke="black" stroke-width="2.29505" stroke-miterlimit="10" stroke-linecap="round" stroke-linejoin="round"/>
<path d="M299.209 301.04C299.209 301.04 299.898 291.057 294.964 287.155C289.8 283.139 281.652 286.926 282.111 288.877" stroke="black" stroke-width="2.29505" stroke-miterlimit="10" stroke-linecap="round" stroke-linejoin="round"/>
<path d="M295.308 306.549C295.308 306.549 296.685 297.713 293.357 292.893C290.029 288.074 279.816 291.057 280.39 293.811C280.964 296.565 284.98 293.008 287.964 297.254C290.947 301.385 283.718 313.893 286.931 322.27C290.144 330.647 300.357 330.991 304.488 335.811" stroke="black" stroke-width="2.29505" stroke-miterlimit="10" stroke-linecap="round" stroke-linejoin="round"/>
<path d="M295.078 226.795C295.078 226.795 291.521 223.582 285.21 224.73C285.21 224.73 284.636 221.058 284.865 219.796C285.095 218.533 285.324 216.927 287.046 217.271C288.652 217.73 291.865 219.796 293.357 219.796C294.734 219.796 291.521 224.271 295.078 226.795Z" fill="black"/>
<path d="M295.078 226.796C295.193 230.009 294.619 232.877 290.603 232.189C287.849 231.73 286.013 228.287 285.21 224.73C285.21 224.73 285.21 224.615 285.095 224.386C284.865 223.123 284.751 221.861 284.751 220.714C284.751 220.369 284.751 220.025 284.751 219.796C284.98 217.845 285.669 216.697 286.816 217.386C288.193 218.074 289.455 218.648 290.603 219.107C291.521 219.451 292.324 219.681 293.013 219.91C293.128 219.91 293.128 219.91 293.242 219.91C295.882 220.599 297.373 220.369 297.373 220.369" stroke="black" stroke-width="2.29505" stroke-miterlimit="10" stroke-linecap="round" stroke-linejoin="round"/>
<path d="M295.078 226.796C295.078 226.796 292.439 223.812 285.21 224.73" stroke="black" stroke-width="2.29505" stroke-miterlimit="10" stroke-linecap="round" stroke-linejoin="round"/>
<path d="M229.325 378.039H521.371C525.731 378.039 529.174 381.597 529.174 385.843V388.482H2V385.843" stroke="black" stroke-width="2.29505" stroke-miterlimit="10" stroke-linecap="round" stroke-linejoin="round"/>
<path d="M23.1145 378.039H9.80318C5.44257 378.039 2 381.597 2 385.843" stroke="black" stroke-width="2.29505" stroke-miterlimit="10" stroke-linecap="round" stroke-linejoin="round"/>
<path d="M270.636 193.747C270.636 193.747 272.816 177.911 274.308 175.157C275.915 172.403 277.177 177.681 291.291 177.681C302.537 177.681 301.619 170.567 310.57 185.025C316.193 193.976 322.16 205.451 329.734 222.779L310.57 215.205C310.57 215.205 312.406 252.844 312.406 258.238" stroke="black" stroke-width="2.29505" stroke-miterlimit="10" stroke-linecap="round" stroke-linejoin="round"/>
<path d="M302.652 176.419C302.652 176.419 302.652 172.862 293.472 171.944" stroke="black" stroke-width="2.29505" stroke-miterlimit="10" stroke-linecap="round" stroke-linejoin="round"/>
<path d="M293.013 176.419C293.013 176.419 293.013 156.108 309.193 144.174" stroke="black" stroke-width="2.29505" stroke-miterlimit="10" stroke-linecap="round" stroke-linejoin="round"/>
<path d="M318.947 115.715C335.242 121.108 330.422 140.272 318.947 144.174C310.685 147.042 305.75 141.42 305.75 141.42C305.75 141.42 297.259 150.026 289.914 142.452" stroke="black" stroke-width="2.29505" stroke-miterlimit="10" stroke-linecap="round" stroke-linejoin="round"/>
<path d="M283.488 174.354C283.488 174.354 279.816 149.567 267.882 137.747" stroke="black" stroke-width="2.29505" stroke-miterlimit="10" stroke-linecap="round" stroke-linejoin="round"/>
<path d="M273.275 132.354C273.62 133.272 267.882 140.501 258.128 137.747C246.079 134.42 248.718 114.223 261.915 115.715" stroke="black" stroke-width="2.29505" stroke-miterlimit="10" stroke-linecap="round" stroke-linejoin="round"/>
<path d="M267.882 112.617C267.882 112.617 273.275 101.027 284.751 107.453C296.914 114.108 292.554 132.813 286.357 130.289C280.16 127.764 292.209 110.551 301.045 119.961C309.767 129.371 293.013 123.403 308.16 115.715" stroke="black" stroke-width="2.29505" stroke-miterlimit="10" stroke-linecap="round" stroke-linejoin="round"/>
<path d="M284.751 176.419C284.751 176.419 285.095 168.731 282.111 153.813" stroke="black" stroke-width="2.29505" stroke-miterlimit="10" stroke-linecap="round" stroke-linejoin="round"/>
<path d="M275.456 174.353C275.456 174.353 276.833 171.944 282.915 171.255" stroke="black" stroke-width="2.29505" stroke-miterlimit="10" stroke-linecap="round" stroke-linejoin="round"/>
<path d="M355.668 137.862L368.176 140.96L357.848 148.19L366.684 150.944C366.684 150.944 339.602 167.812 340.635 167.124C341.553 166.435 351.766 152.78 351.766 152.78L345.799 150.026L355.668 137.862Z" fill="#FF4560" stroke="#FF4560" stroke-width="2.29505" stroke-miterlimit="10" stroke-linecap="round" stroke-linejoin="round"/>
<path d="M358.077 95.6333L368.176 97.2398L360.487 103.666L367.602 105.273C367.602 105.273 347.405 120.42 348.094 119.846C348.783 119.272 355.897 107.797 355.897 107.797L350.963 106.076L358.077 95.6333Z" fill="#FF4560" stroke="#FF4560" stroke-width="2.29505" stroke-miterlimit="10" stroke-linecap="round" stroke-linejoin="round"/>
<path d="M219.686 113.649L203.85 116.633L216.128 126.387L204.997 129.141C204.997 129.141 237.243 152.092 236.095 151.174C234.948 150.255 223.243 132.584 223.243 132.584L230.817 129.6L219.686 113.649Z" fill="#FF4560" stroke="#FF4560" stroke-width="2.29505" stroke-miterlimit="10" stroke-linecap="round" stroke-linejoin="round"/>
<path d="M456.88 224.156C452.175 222.435 448.962 224.271 447.355 225.533C446.552 226.222 446.552 227.369 447.24 228.058C450.339 231.041 455.502 228.861 456.88 224.271C456.88 224.271 456.88 224.156 456.88 224.156ZM456.88 224.156C458.027 220.14 457.109 215.55 455.158 215.091C453.207 214.746 452.978 216.468 450.109 219.91C447.24 223.468 444.027 223.009 444.027 223.009" stroke="black" stroke-width="2.29505" stroke-miterlimit="10" stroke-linecap="round" stroke-linejoin="round"/>
<path d="M446.093 222.779C446.093 222.779 447.011 223.353 447.355 225.418C447.355 225.418 451.601 221.517 456.765 224.271C456.765 224.271 457.798 221.173 457.109 218.189C456.421 215.091 454.814 214.517 453.666 215.32C452.634 216.124 449.88 222.091 446.093 222.779Z" fill="black"/>
<path d="M107.228 147.042C107.228 145.091 107.228 139.354 107.228 139.354" stroke="black" stroke-width="2.29505" stroke-miterlimit="10" stroke-linecap="round" stroke-linejoin="round"/>
<path d="M93.9169 149.682L89.9005 145.551" stroke="black" stroke-width="2.29505" stroke-miterlimit="10" stroke-linecap="round" stroke-linejoin="round"/>
<path d="M123.982 152.436C123.982 152.436 126.736 148.305 127.998 147.616" stroke="black" stroke-width="2.29505" stroke-miterlimit="10" stroke-linecap="round" stroke-linejoin="round"/>
<path d="M443.339 149.337L439.781 142.223" stroke="black" stroke-width="2.29505" stroke-miterlimit="10" stroke-linecap="round" stroke-linejoin="round"/>
<path d="M459.404 149.337C459.404 149.337 460.093 146.698 461.125 144.059" stroke="black" stroke-width="2.29505" stroke-miterlimit="10" stroke-linecap="round" stroke-linejoin="round"/>
<path d="M477.994 167.009C477.994 167.009 481.551 165.059 483.273 165.059" stroke="black" stroke-width="2.29505" stroke-miterlimit="10" stroke-linecap="round" stroke-linejoin="round"/>
<path d="M280.964 163.222C280.964 163.222 275.8 163.222 272.472 168.042C269.144 172.862 268.456 182.157 270.636 192.484C270.636 192.484 277.865 195.124 279.242 180.091C279.242 180.091 299.324 183.534 307.472 182.271C311.144 181.698 309.652 178.14 306.554 174.468C302.767 169.993 296.8 165.518 295.193 166.665C293.357 167.927 290.029 170.911 285.324 168.272C281.078 165.747 280.964 163.222 280.964 163.222Z" fill="black" stroke="black" stroke-width="2.29505" stroke-miterlimit="10" stroke-linecap="round" stroke-linejoin="round"/>
<path d="M336.16 378.039H278.439C275.685 378.039 273.39 375.744 273.39 372.99C273.39 370.236 275.685 367.941 278.439 367.941H336.16C336.16 367.941 334.783 369.662 334.783 372.646C334.783 375.285 336.16 378.039 336.16 378.039Z" stroke="black" stroke-width="2.29505" stroke-miterlimit="10" stroke-linecap="round" stroke-linejoin="round"/>
<path d="M275.8 368.63C275.8 368.63 272.587 335.925 236.899 339.023" stroke="black" stroke-width="2.29505" stroke-miterlimit="10" stroke-linecap="round" stroke-linejoin="round"/>
<path d="M273.275 372.876C273.275 372.876 270.636 338.909 235.636 342.81L236.784 338.909" stroke="black" stroke-width="2.29505" stroke-miterlimit="10" stroke-linecap="round" stroke-linejoin="round"/>
<path d="M334.897 371.269H280.39" stroke="black" stroke-width="2.29505" stroke-miterlimit="10" stroke-linecap="round" stroke-linejoin="round"/>
<path d="M277.062 367.827C277.062 367.827 281.996 335.811 260.538 321.925" stroke="black" stroke-width="2.29505" stroke-miterlimit="10" stroke-linecap="round" stroke-linejoin="round"/>
<path d="M278.439 367.827C278.439 367.827 290.029 344.876 275.8 319.401" stroke="black" stroke-width="2.29505" stroke-miterlimit="10" stroke-linecap="round" stroke-linejoin="round"/>
<path d="M220.03 193.632C220.03 193.632 221.063 197.075 223.128 194.894C225.079 192.714 226.341 188.239 226.341 188.239C226.341 188.239 223.243 200.747 228.522 199.829C233.686 198.796 235.292 198.796 235.292 198.796C235.292 198.796 225.997 203.501 230.128 207.402C234.259 211.304 235.292 211.992 235.292 211.992C235.292 211.992 228.063 209.353 227.718 214.746C227.718 214.746 223.014 208.435 218.883 211.074C218.883 211.074 224.276 207.058 217.965 203.386C217.965 203.386 224.735 202.238 220.03 193.632Z" fill="#FFE843" stroke="#FFE843" stroke-width="2.29505" stroke-miterlimit="10" stroke-linecap="round" stroke-linejoin="round"/>
<path d="M260.538 49.9616C260.538 49.9616 238.964 38.3716 231.505 44.7977C224.161 51.2239 251.013 59.4861 245.964 53.7484C240.915 48.0108 237.587 63.3877 248.833 60.9778C260.079 58.4533 242.407 56.273 246.997 63.2729C251.587 70.2728 261.915 62.2401 264.439 59.8303" stroke="black" stroke-width="2.29505" stroke-miterlimit="10" stroke-linecap="round" stroke-linejoin="round"/>
<path d="M319.521 49.9616C319.521 49.9616 341.094 38.3716 348.553 44.7977C355.897 51.2239 329.045 59.4861 334.094 53.7484C339.143 48.0108 342.471 63.3877 331.225 60.9778C319.98 58.4533 337.652 56.273 333.061 63.2729C328.471 70.2728 318.144 62.2401 315.619 59.8303" stroke="black" stroke-width="2.29505" stroke-miterlimit="10" stroke-linecap="round" stroke-linejoin="round"/>
<path d="M120.884 218.304C120.884 218.304 120.654 219.337 120.884 222.091C120.884 222.091 117.097 220.599 113.999 221.517C113.999 221.517 113.195 220.369 113.081 218.648C112.966 216.927 112.622 214.976 113.31 215.55C113.999 216.238 117.441 219.451 120.884 218.304Z" fill="black"/>
<path d="M47.6715 388.482V410.285" stroke="black" stroke-width="2.29505" stroke-miterlimit="10" stroke-linecap="round" stroke-linejoin="round"/>
<path d="M91.3923 388.482V396.63H104.818L110.786 388.482H91.3923Z" fill="black" stroke="black" stroke-width="2.29505" stroke-miterlimit="10" stroke-linecap="round" stroke-linejoin="round"/>
<path d="M481.551 388.482V410.285" stroke="black" stroke-width="2.29505" stroke-miterlimit="10" stroke-linecap="round" stroke-linejoin="round"/>
<path d="M437.716 388.482V396.629H424.29L418.323 388.482H437.716Z" fill="black" stroke="black" stroke-width="2.29505" stroke-miterlimit="10" stroke-linecap="round" stroke-linejoin="round"/>
<path d="M516.207 353.597C516.207 353.597 513.108 364.843 516.207 366.794C519.305 368.744 516.207 372.875 516.207 372.875" stroke="black" stroke-width="2.29505" stroke-miterlimit="10" stroke-linecap="round" stroke-linejoin="round"/>
</svg>
