<?xml version="1.0" encoding="utf-8"?>
<!-- Generator: Adobe Illustrator 26.4.1, SVG Export Plug-In . SVG Version: 6.00 Build 0)  -->
<svg version="1.1" id="Illustration" xmlns="http://www.w3.org/2000/svg" xmlns:xlink="http://www.w3.org/1999/xlink" x="0px"
	 y="0px" viewBox="0 0 600 600" style="enable-background:new 0 0 600 600;" xml:space="preserve">
<style type="text/css">
	.st0{fill:#E9EFF4;}
	.st1{fill:#DAE7F2;}
	.st2{fill:none;stroke:#0A0A0A;stroke-width:2;stroke-linecap:round;stroke-linejoin:round;stroke-miterlimit:10;}
	.st3{fill:#0A0A0A;}
	.st4{fill:#FF4560;}
	.st5{fill:#FFE843;}
	.st6{fill:#0A0A0A;stroke:#0A0A0A;stroke-width:2;stroke-linecap:round;stroke-linejoin:round;stroke-miterlimit:10;}
	.st7{fill:#FFE843;stroke:#FFE843;stroke-width:2;stroke-linecap:round;stroke-linejoin:round;stroke-miterlimit:10;}
	.st8{fill:none;stroke:#FFE843;stroke-width:2;stroke-linecap:round;stroke-linejoin:round;stroke-miterlimit:10;}
	.st9{fill:#FFFFFF;stroke:#0A0A0A;stroke-width:2;stroke-linecap:round;stroke-linejoin:round;stroke-miterlimit:10;}
	.st10{fill:none;stroke:#FF4560;stroke-width:2;stroke-linecap:round;stroke-linejoin:round;stroke-miterlimit:10;}
	.st11{fill:#FFFFFF;}
	.st12{fill:#FF4560;stroke:#FF4560;stroke-width:2;stroke-linecap:round;stroke-linejoin:round;stroke-miterlimit:10;}
	.st13{fill:none;}
</style>
<g>
	<path class="st0" d="M154.9,260l-6.6,39.1c0,0-5.7,2-8.4,3.4c-0.1,0-0.1,0.1-0.2,0.1c-0.3,0.2-0.6,0.3-0.9,0.5c0,0-0.1,0-0.1,0.1
		c-2.4,1.4-4.5,2.9-4.6,4.3c-0.4,3.6-1.7,4.3-17.4,14.4c-3.8,2.5-7.4,5.1-10.7,7.7c0,0-26.4-16.8-10.9-40
		c5.6-8.4,17.5-15.9,32.6-21.7C135.9,264.7,145.2,262,154.9,260z"/>
	<path class="st0" d="M225.1,323.9h10.8c-1.1,1.3-2.1,2.6-3.1,3.8c-0.1,0.1-0.1,0.2-0.2,0.3c-0.1,0.1-0.1,0.1-0.2,0.2
		c-0.2,0.3-0.4,0.5-0.7,0.8c0,0.1-0.1,0.1-0.1,0.1c0,0,0,0,0,0c-3.7-3.1-7.6,0.3-7.6,0.3c-0.9-3-3.4-7.6-6.1-12.1
		c-0.1-0.1-0.1-0.1-0.1-0.2c-2.2-3.8-4.1-6.8-5.5-9c-1.2-1.7-2-2.9-2.5-3.5c0,0,0-0.1-0.1-0.1c0,0,0-0.1,0-0.1
		c0.7-6.1,1.7-19,1.7-43l14.6-1.4c32.3,10.6-2.7,39.3,7.5,40.6c4.1,0.5,11-0.3,17.8,0.1C242.2,308.5,232.4,317.1,225.1,323.9z"/>
	<path class="st0" d="M247.4,323.9c0,0-3.6,4.7-4.8,7.1s-1.7,3.7-1.2,4c0.5,0.3,6.8-4,6.8-4l4.1-7.1L247.4,323.9z"/>
	<path class="st1" d="M417.8,315.5c0,0-1.1,0-2.9-0.1"/>
	<path class="st2" d="M325.5,351.2c-1.8,0.3-3.4,1.2-4.5,2.6c-3,3.9-8.8,13.6-14.9,35.3c-8.7,31-3.5,32.6,0,34.2
		s85.2,13.8,90.4,14.5s10.4-4,16.5-25.4c7.9-27.4,11.4-53.1,8.8-57.9C419.3,350,359.1,346.4,325.5,351.2z"/>
	<path class="st2" d="M372.1,409.2l-0.8-19.5l2.1,1.6l-1-8.6l9.5-8l-53.4-1.3C328.6,373.2,361.5,402.3,372.1,409.2z"/>
	<polygon class="st3" points="328,287.6 328,277.2 323.2,281.1 	"/>
	<polygon class="st3" points="259.9,324.2 252,323.9 246.9,331.8 	"/>
	<g>
		<path class="st4" d="M345.4,265.5c-4.8,2.8-9.3,5.7-13.3,8.7c-0.1,0.4-4,12-4,13.4l0-10.4c0,0,0,0,0,0v0l-0.6,0.5
			c0.2-0.2,0.4-0.3,0.6-0.5v10.4c0,0,0-0.1-0.2-0.2c-0.5-0.6-1.9-2.7-4.7-6.3c0.2-0.1,0.3-0.3,0.5-0.4l-0.5,0.4l0,0
			c-8.7,7.2-14,13-14,13c-3.4-23.3-14.8-51.5-15-51.9c0,0,0,0,0,0C315.7,248,345.4,265.5,345.4,265.5z"/>
	</g>
	<path class="st5" d="M274.7,281.1c-1.8,8.8-14.3,42.8-14.3,42.8h-12.9c0.4-0.5,0.8-0.9,1.2-1.2c5.9-5,10.6-11,6-12.5
		c-3.8-1.2-12.2,6.1-18.8,13.7h-10.8C242.5,307.5,274.7,281.1,274.7,281.1z"/>
	<path class="st5" d="M274.7,281.1c0,0-10.4,43.7-10.6,44.8c-0.2,1.1,14.4,14.4,19.1,20.3C283.2,346.2,277,290.6,274.7,281.1z"/>
	<path class="st5" d="M264.1,325.9c0,0-17,5.8-16.8,5.6c0.2-0.1,13.1-7.6,13.1-7.6l14.3-42.8L264.1,325.9z"/>
	<path class="st2" d="M203.9,362.2c0,0,4.7-4.7,8.4-12.7c3.7-8,9.8-24.6,19.6-20.3"/>
	<path class="st2" d="M265.4,328c-5.6,6-14.6,14.1-14.6,14.1"/>
	<path class="st2" d="M225.2,334.5c0,0,2.9-1.3,6.4-5.4c0,0,0.1-0.1,0.1-0.1c0.2-0.2,0.4-0.5,0.7-0.8c0.1-0.1,0.1-0.1,0.1-0.2
		c0.1-0.1,0.2-0.2,0.2-0.3c1-1.3,2-2.6,3.1-3.8c0.1-0.2,0.3-0.3,0.4-0.5c6.5-7.4,14.6-14.4,18.3-13.2c4.6,1.5-0.1,7.5-6,12.5
		c-0.2,0.2-0.5,0.5-0.8,0.7c-0.2,0.1-0.3,0.3-0.4,0.5c-1.4,1.6-2.9,3.8-4.1,5.9c0,0,0,0.1,0,0.1c-1.6,2.7-2.6,5.2-2.3,5.4
		c0,0,0.1,0,0.1,0c0.4,0,2.7-1.5,5.8-3.5"/>
	<path class="st2" d="M254.9,338.3c0,0,3.3,0.1,4.5,3.2c1.2,3.1-3.6,7.6-6,10"/>
	<path class="st2" d="M256.8,347.9c0,0,2.5-0.1,3.4,3c0.9,3.1-2.5,8.6-8.8,14.1c-4.5,4-13.7,10.5-21.1,13.9
		c-6.4,3-16.1,7.4-16.1,7.4"/>
	<path class="st2" d="M127.8,443.1c17.1-0.4,29.9-9,47.8-21.2c13.4-9.2,24.5-14.2,25-20.1c0.3-3.8,5.2-4.6,7.2-5
		c4.3-0.9,6.4-2.2,6.6-8.8c0.2-6.6-2.1-17-10.4-25.9c-3.1-3.2-7.6-4.8-11.7-2.1s-4.6,4.9-6.4,4.2c-10.8-4.2-27.6,9.9-50.1,22.1"/>
	<path class="st2" d="M136.4,391.5c0,0-0.5-2.1-0.8-5.1c-0.2-3-1.3-7.3-8.3-0.8c0,0,2.6-4.4-0.5-5.1c-4.3-1-7.2-3.3-7.2-3.3"/>
	<path class="st2" d="M200.7,400.9c0,0,3.3-30.7-15-36.6"/>
	<path class="st2" d="M147.5,299.1c0,0-13.1,4.7-13.5,8.4c-0.4,3.6-1.7,4.3-17.4,14.4c-15.6,10.1-27.2,22.3-30.9,30.9"/>
	<path class="st2" d="M149.4,300c0,0,12.4,13.5,29.8,18s27.9-2.6,29.8-9c0,0,2.3-11,2.3-47.5c0-0.5,35.9-3.4,35.9-3.4
		s-11.8-12.4-30.7-25.8c-10-7.1-25.1-16.6-40.5-10.1c0,0-3.5,14.1-17.2,18.6c0,0-5.2-5.8-11.1-2.7c-5.9,3.1-6.3,18.5,7.7,18.6
		l-6.4,41.1"/>
	<path class="st2" d="M151.4,247.9c0,0,3.1,0.3,4.1,4.1"/>
	<g>
		<path class="st2" d="M177.3,272.1c8.1-1.7,11.4,4.4,11.4,4.4c-3.8,5-10.4,1.7-11.3-4.2C177.3,272.2,177.3,272.2,177.3,272.1
			c-0.7-4.6,1-9.5,3.2-9.7c2.2-0.2,2.2,1.8,4.8,6c2.7,4.3,6.2,4.3,6.2,4.3"/>
		<path class="st3" d="M189.4,272.2c0,0-1.1,0.5-1.8,2.8c0,0-4.1-4.9-10.2-2.6c0,0-0.7-3.5,0.5-6.8c1.2-3.3,3.1-3.7,4.2-2.6
			C183.2,264,185.4,270.9,189.4,272.2z"/>
	</g>
	<path class="st2" d="M209.6,304.6c1.5,1.9,7.7,10.3,14.4,24.9"/>
	<path class="st2" d="M222.6,382.5c0,0,3.1,25.8,5,48.3"/>
	<path class="st2" d="M296.9,358.8c1.8,2.7-0.4,7.6-6.3,15.7c-4.1,5.6-5.8,9-16.1,23.5c-10.3,14.5-16.5,18.8-21.2,21.9
		c-5.6,3.6-17.3,8.9-26.8-1.2"/>
	<path class="st2" d="M273,346.7c0,0-1.8-2.5-13,7.2"/>
	<path class="st2" d="M293.9,369.8c-14.3,8.1-26-4.1-27.9-12.4c-1.2-5.4-0.4-7.9-0.4-7.9"/>
	<path class="st6" d="M185.3,248.3c0,0,0.2,4.1-0.6,4.6c-0.8,0.5-0.5-3.4,0.1-4.3"/>
	<path class="st6" d="M173.9,224.6c0,0,4.4,22.5-15.1,16.3c0,0-1.5-12.4,6.2-23.4c9-12.9,29.1-17.2,25.7-6.7c0,0,8.2-3.9,14.9-2.3
		c6.8,1.7,1.9,8,1.9,8s5.7-0.5,6.7,5.5C215.4,228.4,211.9,239.5,173.9,224.6z"/>
	<path class="st2" d="M191.2,210.5c0,0,2.6-5.3,10-5.5"/>
	<path class="st2" d="M261.6,157.7c-13.1-3-31.9-1.3-38.3,5.1c-1.7,1.7-2.9,4.7-3.6,8.3c-1.8,8.8-0.6,21.1,3.6,25.3
		c0.1,0.1,0.1,0.1,0.2,0.2c2,2,2.6,4.9,1.6,7.5c-0.4,0.9-0.3,1.5,0.5,1.2c1.3-0.4,3.5-1.6,5.4-2.7c1.4-0.9,3.1-1.1,4.8-0.8
		c13,2.6,30.8,0.8,37-5.4c4.6-4.6,5.6-18.5,3.2-27.4c-0.7-2.7-1.8-4.9-3.2-6.2"/>
	<g>
		<path class="st6" d="M234.9,176.4l0.9,1.9c0.1,0.2,0.3,0.3,0.4,0.3l2.1,0.3c0.5,0.1,0.7,0.7,0.3,1l-1.5,1.4
			c-0.1,0.1-0.2,0.3-0.2,0.5l0.4,2.1c0.1,0.5-0.4,0.8-0.8,0.6l-1.8-1c-0.2-0.1-0.4-0.1-0.6,0l-1.8,1c-0.4,0.2-0.9-0.1-0.8-0.6
			l0.4-2.1c0-0.2,0-0.4-0.2-0.5l-1.5-1.4c-0.4-0.3-0.2-0.9,0.3-1l2.1-0.3c0.2,0,0.4-0.1,0.4-0.3l0.9-1.9
			C234.1,176,234.7,176,234.9,176.4z"/>
		<path class="st7" d="M248.6,175.7l1,2.2c0.1,0.2,0.3,0.4,0.5,0.4l2.4,0.3c0.6,0.1,0.8,0.8,0.4,1.2l-1.8,1.7
			c-0.2,0.2-0.2,0.4-0.2,0.6l0.5,2.4c0.1,0.6-0.5,1-1,0.7l-2.1-1.2c-0.2-0.1-0.4-0.1-0.6,0l-2.1,1.2c-0.5,0.3-1.1-0.2-1-0.7l0.5-2.4
			c0-0.2,0-0.5-0.2-0.6l-1.8-1.7c-0.4-0.4-0.2-1.1,0.4-1.2l2.4-0.3c0.2,0,0.4-0.2,0.5-0.4l1-2.2
			C247.6,175.2,248.3,175.2,248.6,175.7z"/>
		<path class="st6" d="M262,176.4l0.9,1.9c0.1,0.2,0.3,0.3,0.4,0.3l2.1,0.3c0.5,0.1,0.7,0.7,0.3,1l-1.5,1.4
			c-0.1,0.1-0.2,0.3-0.2,0.5l0.4,2.1c0.1,0.5-0.4,0.8-0.8,0.6l-1.8-1c-0.2-0.1-0.4-0.1-0.6,0l-1.8,1c-0.4,0.2-0.9-0.1-0.8-0.6
			l0.4-2.1c0-0.2,0-0.4-0.2-0.5l-1.5-1.4c-0.4-0.3-0.2-0.9,0.3-1l2.1-0.3c0.2,0,0.4-0.1,0.4-0.3l0.9-1.9
			C261.2,176,261.8,176,262,176.4z"/>
	</g>
	<g>
		<path class="st3" d="M274,152.1c0-0.9-0.4-1.8-1.2-2.5c-1.8-1.6-3.9-2.3-5.7-1.7c-1.6,0.6-2.7,2.1-3.1,4.2l0,0
			c-0.1,0.7,0.4,1.2,0.9,1.3c0.5,0.1,1.1-0.1,1.4-0.8c0.5-1.4,1.1-2.2,1.8-2.4c1.2-0.2,2.5,0.8,3,1.2c0.9,0.8,0.3,1.6-0.7,2.8
			c-0.2,0.2-0.3,0.4-0.4,0.5c-0.3,0.4-0.7,0.7-1,1.1c-1.8,1.9-3.9,4.1-4,7c0,0.5,0.4,0.9,0.8,1c0,0,0,0,0,0c0.3,0,0.5-0.1,0.7-0.2
			c0.2-0.2,0.3-0.4,0.3-0.7c0.2-2,2.1-3.8,3.8-5.5c0.4-0.4,0.7-0.7,1.1-1C272.5,155.7,274,154,274,152.1z"/>
		<path class="st3" d="M266,165.3C266,165.3,266,165.3,266,165.3c-0.4-0.1-0.8,0.1-1.1,0.5c-0.3,0.3-0.5,0.8-0.6,1.3
			c-0.2,1.1,0.3,2.1,1.1,2.3c0.1,0,0.1,0,0.2,0c0.4,0.1,0.8,0,1.1-0.3c0.4-0.3,0.7-0.9,0.7-1.6C267.5,166.5,266.8,165.4,266,165.3z"
			/>
	</g>
	<g>
		<path class="st2" d="M294.2,242.2c0,0,19.3,16.8,33.9,35c0,0,0,10.4,0,10.4c0-1.4,4-13.4,4-13.4S305,248.6,294.2,242.2"/>
		<path class="st6" d="M328,287.6c0,0-1.4-2.1-4.8-6.5l4.9-3.9L328,287.6z"/>
	</g>
	<path class="st2" d="M325.5,351.2c-1.8,0.3-3.4,1.2-4.5,2.6c-3,3.9-8.8,13.6-14.9,35.3c-8.7,31-3.5,32.6,0,34.2
		s85.2,13.8,90.4,14.5s10.4-4,16.5-25.4c7.9-27.4,11.4-53.1,8.8-57.9C419.3,350,359.1,346.4,325.5,351.2z"/>
	<path class="st2" d="M300.1,423.6c0,0-58.3,5.4-59.1,7.2c-0.9,1.8,79.3,23.1,85.4,23.5c6.1,0.3,68.3-12.2,70.7-13.2
		c2.4-1,0.6-3.2,0.6-3.2"/>
	<g>
		<path class="st2" d="M451.5,424.9c5.4,0.7,8.9,1.8,8.9,3.1l0,0.2c-0.5,1.9-9.1,3.5-19.7,3.5c-10.5,0-19.1-1.5-19.7-3.5l0-0.2
			c0-1.3,3.7-2.4,9.3-3.1"/>
		<path class="st2" d="M460.4,428.2C460.4,428.2,460.4,428.2,460.4,428.2l-5,14.4c0,1.3-6.6,3-14.7,3c-8.1,0-14.7-1.7-14.7-3
			l-5-14.4c0,0,0,0,0,0"/>
		<g>
			<path class="st6" d="M443.1,421.7c-0.7,0.1,1-8.7-1.4-9.6c-2.4-1-4.6,8.3-5.7,9.7c-1.1,1.4-5.7-9.3-6.3-5.7
				c-0.3,1.7,0.2,3.8,0.9,5.7c0.9,2.7,3.3,4.7,6.2,5.3c3.2,0.6,7.1,0.9,11-1.3c3.3-1.9,5.3-7.5,3.4-8.2c-1.9-0.7-5.5,3.2-5.5,3.2"/>
		</g>
	</g>
	<path class="st2" d="M240.9,430.8c0,0-46.5,5-71.6,8.1"/>
	<path class="st2" d="M379.4,362.9c0,0-13.9-2.8-17-19.2c-2.6-13.6,0.6-31.2-8.7-26.3c-9.3,4.9,4.3,6.1,1.1-4.3
		c-2.4-7.7-7.3-15-19.5-25.4"/>
	<path class="st2" d="M409.2,403.8c0,0-1.1-5.8-8.8-3.5c-7.7,2.2,8.2,3.8,1.2-4.2c-7-8-20.7-7.8-20.7-7.8"/>
	<path class="st2" d="M297.1,330.8c0,0-8.3,8.1-7.9,12.2c0.4,4.3,4.6,4.4,10.8-1.6c5.8-5.6,9.4-11.4,7.2-15
		c-2.2-3.6-8.4-2.4-13.7,0.8"/>
	<path class="st2" d="M306.4,333.3c0,0,3.9-1.1,5.8,2.8c1.8,3.9-3.2,10.5-10,13.8c-5.6,2.7-11.2,1.3-9-3.8"/>
	<path class="st2" d="M310.8,342.6c0.1-0.1,4.4-0.9,4.8,3.6c0.4,4.4-5.2,8-11.6,9.5c-5.8,1.4-8.4-1.6-6.2-4.5"/>
	<path class="st2" d="M305.1,355.4c0,0-5.7,4.6-12.9,1.7"/>
	<path class="st2" d="M292.6,329.5c0,0,3.2-7.7,4.4-18.6c0.8-7.6-6.6-9.2-10.7-4.6c-4.9,5.6-7.8,16.4-4.3,17.6
		c4,1.4,8.2-4.1,10.9-10.7"/>
	<path class="st2" d="M260.4,323.9c0,0,12.6-34,14.3-42.8"/>
	<path class="st2" d="M274.7,281.1c0,0-10.4,43.7-10.6,44.8"/>
	<path class="st2" d="M282,323.9c0,0-0.5,1.3-1.1,2.7"/>
	<path class="st2" d="M269.7,332.1c0,0-3.9,0.7-4.3,5c-0.4,4.3,2.8,6.9,6.3,6.3c3.5-0.5,3.1-5.1,2.8-6.5"/>
	<path class="st2" d="M270.3,343.5c0,0,2.2,1.8,3.2,4.3c4.7,12.2,10.6,13.5,15.7,13.5c6.1,0,8.7-3.4,8.7-3.4"/>
	<g>
		<path class="st2" d="M329.3,373.5c0,0,14.7,4,42.1,11.8c0,0,0,8.5,1.1,23.9"/>
		<path class="st2" d="M372.5,382.2c0,0-29.6-7.1-43.2-8.8"/>
		<polyline class="st2" points="372.5,382.2 373.5,391.4 371.3,385.3 		"/>
		<line class="st2" x1="373.5" y1="391.4" x2="371.8" y2="390.4"/>
	</g>
	<path class="st6" d="M196.1,249.6c0,0,0.2,4.1-0.6,4.6s-0.5-3.4,0.1-4.3"/>
	<g>
		<g>
			<path class="st6" d="M411.3,247.6c0,0,0.3,2.7-0.2,3.1s-0.5-2.2-0.1-2.8"/>
			<path class="st6" d="M423.6,247.3c0,0,0.3,2.7-0.2,3.1s-0.5-2.2-0.1-2.8"/>
		</g>
		<path class="st2" d="M407.7,229.5c0,0-15.4,26.2-17.2,30.2l15.6,0.4c0,0-4.4,23.7-4.3,28.7c0,2.6,6.7,4.9,15.4,4.5
			c7.8-0.4,17.3-3,24.8-9.6c0,0-0.3-21.4-0.3-23.7"/>
		<path class="st2" d="M440.2,250c0,0,3.7-6.8,8.5-2.6c4.5,4-1,13.6-7,12.7"/>
		<path class="st2" d="M445.4,252.9c0,0-2.6-0.2-4.3,3.3"/>
		<path class="st6" d="M440.7,249.2l-0.3-10.3c-18,0.2-19.9-16-19.9-16c-8.6-0.1-13.5,7.7-13.5,7.7s1.6-9.8,12.1-12
			c13.1-2.7,32.9,2,24,28.1"/>
		<path class="st6" d="M439.6,231.6c0,0,9.1-12.7,16.6-8.2c4.5,2.7-0.4,8.5-0.4,8.5s8.5-0.7,9.4,5.3c0.8,5.4-7.4,4.5-7.4,4.5
			s7.6,4.9,4.6,9.2c-2.6,3.7-7.6,1.7-12.1-1.3c0,0-0.8-2.6-1.6-3.3c-0.6-0.5-2.6-0.7-3.4-0.6c-3.3,0.2-3.8-3.5-3.8-3.5
			S441.2,234.9,439.6,231.6z"/>
		<g>
			<path class="st2" d="M426.7,265.7c-0.3,1.2-0.9,2.5-1.9,3.5c-2.6,2.6-7.6,2.6-7.2-1.7C417.6,267.5,420.9,264.7,426.7,265.7
				c0.6-2.2,0.2-4.3,0.2-4.3c-6.1,2.9-12.9,2.5-12.9,2.5"/>
			<path class="st3" d="M417.8,263.7c0,0,0.6,1.7,0.2,3.4c0,0,4.3-2.3,8.4-1.5c0,0,0.8-2.8,0.5-4.3
				C426.9,261.3,422.9,263.5,417.8,263.7z"/>
		</g>
		<path class="st2" d="M450.8,250.7c16.9,6,29,18.7,24.7,38c-7.7,34.9-72.4,42.7-50.3,26.8c0,0-40.4,3.4-53.3-22.6
			c-8.3-16.9,0.7-34.3,22.9-42.1"/>
		<path class="st2" d="M380.6,303.7c0,0,4.2-11.6,21.2-18.9"/>
		<path class="st2" d="M441.9,281.6c0,0,16.1,4.2,25.9,21.7"/>
		<path class="st2" d="M420.8,222.5c0,0-5,11.3-0.1,12.5s-4.9,3.8,2.1,2.1"/>
		<path class="st2" d="M416.3,293.3c0,0-4.1-0.3-2.2,2.6c1.9,2.8,0.6,3,0,11.2"/>
		<circle class="st3" cx="419.5" cy="297.7" r="1.1"/>
		<circle class="st3" cx="419.5" cy="304.9" r="1.1"/>
	</g>
	<g>
		<g>
			<path class="st6" d="M369.5,168.5c0,0,0.7,2.6,0.3,3.1c-0.4,0.4-0.8-2.1-0.6-2.7"/>
			<path class="st6" d="M380.3,166.9c0,0,0.7,2.6,0.3,3.1c-0.4,0.4-0.8-2.1-0.6-2.7"/>
		</g>
		<path class="st2" d="M398.3,237.7c-15,5.4-26.4,4.6-14.4-5.1c0,0-40.4,3.4-53.3-22.6c-6.5-13.2-2.4-26.7,10.3-35.7"/>
		<path class="st2" d="M411.6,168.6c15.7,6.3,25.6,18.5,22.6,37.2c-0.4,2.6-1.3,5-2.5,7.4"/>
		<path class="st2" d="M363.3,156.2c0,0-21.6,14.4-24.8,17c0,0,22.7,3.9,23.8,4.5c1.1,0.6,4.1,30.9,4.1,30.9s3.6,5.6,15.8,4.4
			c12.2-1.1,25.1-10.9,25.1-10.9"/>
		<path class="st6" d="M401.4,165.1c-0.7,1-1.2,2-1.4,2.6c-0.2-1-0.4-1.9-0.6-2.6c0,0-10.8,2.6-5.7-11.8c0,0-7.4,6-9.8-0.4
			c0,0-8.6,7.9-13.4-1.8c0,0-5.4,9.2-9.5,3.4c-4.2-5.8-0.7-19.5,6-17.8c0.9,0.2,5.8-5.7,13.5-1.6c2.3,1.2,2.8,2,5.9,1.6
			c8-1.1,11.4,1.6,11.8,5.6C399.8,156.2,401.4,164.5,401.4,165.1z"/>
		<path class="st2" d="M401.4,165.1C401.4,165.1,401.4,165.1,401.4,165.1"/>
		<path class="st2" d="M402.2,177c2.6,10.7,5.7,23.8,5.7,23.8s1.4-1,4.9,1.4c3.5,2.4,16.5,5.6,20.1,8.5"/>
		<path class="st2" d="M401.4,165.1c1.3-1.8,3.4-3.5,6.5-2.8c5.8,1.4,3.8,14.2-5.7,14.8"/>
		<path class="st2" d="M406.3,169.2c0,0-2.1,0.5-2.9,3.5"/>
		<path class="st2" d="M379.3,187.6c0,0,1.7,1.4,4.7-0.6c3.1-2.1,4.6-6.3,4.6-6.3s-1.6,5.9-3.7,7.1c-1,0.6-1.2-0.2-1.2-0.2"/>
		<path class="st2" d="M366.3,208.6c0,0-0.4-2.8-8.6,5.6c-8.5,8.7-9.3,12.4-9.3,12.4"/>
		<path class="st2" d="M360,211.9c0,0-0.1,14.7,15.2,16.7c0,0,7.7-12.9,8.8-13.3c1-0.5,11,10.1,12,10.4s17.1-9.4,17.9-22.9"/>
		<path class="st2" d="M384,215.3c0,0-0.2,3.6,1,4c1.2,0.4,0.2,3.5,1.9,9.3"/>
	</g>
	<path class="st2" d="M264.1,325.9c0,0-17,5.8-16.8,5.6c0.2-0.1,13.1-7.6,13.1-7.6"/>
	<path class="st2" d="M240.4,373.3c-5,5.4-9.1,11-9.8,15"/>
	<path class="st2" d="M240.9,432c0,0-0.8,1.2,1,2.5c3.7,2.7,75,24.6,84.2,24.6c9.2,0,68.2-13,70.6-14s2.2-3.4,1.6-5.2"/>
	<path class="st2" d="M398.7,437.8c0,0,4.2,0.9,7.4-1.7c3.2-2.6,11.3-20.1,16.6-51.9s0-28.8,0-28.8"/>
	<path class="st2" d="M253.7,317.8c0,0,4.5-3,5.5-5.7"/>
	<path class="st2" d="M141.3,314.9c0,0,17.6,21.8,56.2,31.2c5.4,1.3,14.8-19.4,14.8-38"/>
	<path class="st2" d="M195.5,318.8c0,0,5.4,0.5,3.5,5.1c-1.9,4.6,0.2,16.4,0.4,21"/>
	<circle class="st3" cx="190.9" cy="325.9" r="1.9"/>
	<g>
		<path class="st2" d="M216.9,446.1c3-4,10.2-5.5,17.4-4.2c12.3,2.2,12.9,7.3,10.9,9c-1.9,1.7-16.4,4-24.4,2.1
			C214.1,451.5,215.7,447.7,216.9,446.1z"/>
		<path class="st2" d="M239.1,443.1c0,0-0.8-2-3.1-1.9c-2.1,0-2.6,1.2-2.6,1.2"/>
	</g>
</g>
</svg>
