<svg fill="none" height="256" viewBox="0 0 256 256" width="256" xmlns="http://www.w3.org/2000/svg">
    <g stroke-linecap="round" stroke-linejoin="round" stroke-width="3.84316">
        <path d="m176.91 124.22c-19.874 41.608-24.236 56.898-24.236 56.898-5.536-.941-14.073-1.229-24.79-1.229-10.286 0-16.674.188-20.627.409.078-2.989-1.052-14.614-18.2239-42.006-14.4929-23.118-38.3636-89.8252 27.6799-98.8929 66.043-9.0678 81.078 41.1094 60.197 84.8209z"
              fill="#ffe843" stroke="#ffe843"/>
        <g stroke="#000">
            <path d="m107.257 180.298c-.006.274-.028.548-.066.819"/>
            <path d="m152.674 181.118c7.396 1.24 9.301 3.598 3.61 7.916"/>
            <path d="m100.925 181.018s.653-.399 6.333-.72"/>
            <path d="m100.926 184.461s-5.7023 4.196 6.399 5.791c22.941 3 42.649-2.436 48.716 1.207 6.067 3.642 1.45 9.466-4.861 9.964s-32.695 1.628-44.907-1.207c-5.303-1.229-9.7096-7.119-.73-10.285"/>
            <path d="m107.203 200.404s-3.322 5.702 1.417 8.459 25.731 1.783 35.43 1.783c11.392 0 11.404-5.459 9.787-8.592"/>
            <path d="m119.503 210.646s1.683 6.521 9.666 7.274c10.197.974 12.622-7.274 12.622-7.274"/>
            <path d="m117.145 177.951s-.654-13.917-7.529-33.669c-6.876-19.752 2.613-26.573 7.529-22.653 4.915 3.919 8.182 11.005 4.583 16.176-3.598 5.17-6.222-14.715 2.945-17.228 9.168-2.513 16.375 5.536 15.39 13.995s-6.809 2.214-6.875-5.536c-.067-7.75 11.138-13.519 16.696-5.769 5.558 7.751-4.905 27.193-6.223 54.706"/>
            <path d="m72.7475 128.172s-40.5669-21.8-54.4067-9.688c-13.83967 12.113 36.6144 27.602 27.2034 16.829-9.411-10.772-15.8216 18.18 5.3808 13.419 21.2025-4.76-12.1125-8.724-3.3215 4.429s27.9452-2.026 32.6507-6.399"/>
            <path d="m183.465 128.172s40.556-21.8 54.395-9.688c13.84 12.113-36.603 27.602-27.203 16.829 9.4-10.772 15.811 18.18-5.392 13.464-21.202-4.717 12.113-8.725 3.322 4.428-8.791 13.154-27.934-2.026-32.651-6.399"/>
        </g>
    </g>
</svg>