<svg width="519" height="389" viewBox="0 0 519 389" fill="none" xmlns="http://www.w3.org/2000/svg">
    <path d="M113.738 158.868C113.738 158.868 103.066 162.999 96.2956 171.032C91.5907 176.54 88.7219 183.884 87.4596 187.9C56.8206 172.409 60.4927 144.065 91.0169 139.475C96.9841 138.557 101.115 137.065 104.099 135.229C108.23 138.442 117.41 141.655 117.41 141.655C117.41 141.655 111.787 145.327 108.115 150.835C104.328 156.343 113.738 158.868 113.738 158.868Z"
          fill="#E9EFF4"/>
    <path d="M230.556 169.884C216.9 151.294 203.474 150.835 203.474 150.835C201.524 145.786 198.884 146.245 198.884 146.245C199.917 141.311 197.278 136.147 194.983 135.803C191.999 135.344 192.114 136.606 191.081 137.065C190.278 137.409 187.409 115.377 186.376 107.918C209.442 114.688 231.818 125.704 241.228 139.36C251.211 153.589 238.818 164.606 230.556 169.884Z"
          fill="#E9EFF4"/>
    <path d="M367.571 126.623C367.571 126.623 367.226 135.459 366.997 138.098C366.882 140.852 366.653 156.458 366.653 156.458C361.145 152.442 360.227 159.442 360.227 159.442C360.227 159.442 348.063 159.901 338.424 162.196C330.85 163.917 323.276 170.458 320.178 173.327C313.637 168.507 310.309 160.016 323.85 144.983C330.85 137.295 342.899 129.721 356.899 123.065C362.177 130.409 367.571 126.623 367.571 126.623Z"
          fill="#E9EFF4"/>
    <path d="M468.094 173.327C459.832 157.491 449.045 153.934 441.012 153.819C432.406 153.704 425.521 157.72 423.57 158.753C421.619 159.786 419.324 161.966 419.783 159.442C420.242 156.917 418.406 113.082 418.406 113.082C427.586 112.967 430.226 107.115 430.914 103.098C442.045 102.754 450.422 104.705 453.979 109.639C467.864 129.147 445.832 135.458 467.864 142.688C490.012 149.803 479.799 170.917 468.094 173.327Z"
          fill="#E9EFF4"/>
    <path d="M102.836 267.883L76.3284 262.031C74.9513 258.818 51.7713 204.195 59.2302 198.113C66.5744 192.032 84.5906 191.802 86.0824 191.802C85.5086 195.015 84.8201 202.015 85.8529 215.212C87.3446 235.178 94.115 260.998 102.836 267.883Z"
          fill="black" stroke="black" stroke-width="2.29505" stroke-miterlimit="10" stroke-linecap="round"
          stroke-linejoin="round"/>
    <path d="M491.848 276.26H480.602C483.012 266.277 483.471 253.883 482.897 239.31C482.094 220.835 478.996 198.917 471.996 181.819C472.57 181.704 492.422 179.983 499.766 184.802C506.995 189.622 491.848 276.26 491.848 276.26Z"
          fill="black" stroke="black" stroke-width="2.29505" stroke-miterlimit="10" stroke-linecap="round"
          stroke-linejoin="round"/>
    <path d="M267.621 369.095L257.064 378.734C255.458 380.226 256.49 382.98 258.671 382.98L404.636 387.57C407.849 387.685 410.833 386.193 412.783 383.554L453.75 326.407C454.439 325.489 453.75 324.112 452.603 324.112L433.095 323.538"
          stroke="black" stroke-width="2.29505" stroke-miterlimit="10" stroke-linecap="round" stroke-linejoin="round"/>
    <path d="M435.045 320.095L382.718 373.226C381.111 374.832 378.931 375.636 376.636 375.521L194.065 365.193C191.655 365.078 190.851 361.98 192.917 360.718L267.277 312.636C267.736 312.407 268.195 312.177 268.654 312.292L434.357 318.374C435.275 318.259 435.734 319.407 435.045 320.095Z"
          stroke="black" stroke-width="2.29505" stroke-miterlimit="10" stroke-linecap="round" stroke-linejoin="round"/>
    <path d="M214.491 276.719H179.72" stroke="black" stroke-width="2.29505" stroke-miterlimit="10"
          stroke-linecap="round" stroke-linejoin="round"/>
    <path d="M348.981 276.719H269.457" stroke="black" stroke-width="2.29505" stroke-miterlimit="10"
          stroke-linecap="round" stroke-linejoin="round"/>
    <path d="M121.427 296.686C129 308.276 136.459 312.177 146.672 311.833C171.573 311.03 178.918 240.113 180.983 210.392C181.213 207.752 182.819 204.08 182.934 202.13C183.163 198.343 181.672 197.54 181.672 197.54C181.672 197.54 168.36 204.998 153.328 191.687C153.328 191.687 150 193.179 150 197.54C150 199.031 149.77 203.277 149.197 205.113C146.328 214.408 141.623 225.654 139.098 231.736C135.771 239.539 131.295 254.686 130.033 262.604C129.459 266.047 126.935 275.227 130.951 276.489C135.426 277.981 136.689 239.195 135.426 232.195C134.279 225.08 129 215.441 132.328 211.654C135.656 207.867 132.328 206.261 130.033 206.834"
          stroke="black" stroke-width="2.29505" stroke-miterlimit="10" stroke-linecap="round" stroke-linejoin="round"/>
    <path d="M135.541 146.36C135.541 146.36 123.951 146.131 128.885 152.442C129.803 153.589 112.017 156.917 99.394 167.934C90.099 175.966 82.7548 189.048 85.7384 215.212C87.0007 226.228 89.8695 249.637 98.476 262.604"
          stroke="black" stroke-width="2.29505" stroke-miterlimit="10" stroke-linecap="round" stroke-linejoin="round"/>
    <path d="M203.589 150.835C221.95 153.245 231.704 171.491 234.917 176.196C246.851 194.097 261.884 228.293 266.589 244.933C269.228 254.113 275.654 271.326 245.933 287.391C244.671 288.08 239.622 295.079 236.294 292.555C236.294 292.555 240.654 268.686 221.72 272.244"
          stroke="black" stroke-width="2.29505" stroke-miterlimit="10" stroke-linecap="round" stroke-linejoin="round"/>
    <path d="M187.638 289.801C187.638 289.801 184.884 287.391 178.802 288.768C177.311 289.112 166.409 293.588 166.409 293.588"
          stroke="black" stroke-width="2.29505" stroke-miterlimit="10" stroke-linecap="round" stroke-linejoin="round"/>
    <path d="M223.556 272.014C223.556 272.014 217.13 280.391 195.901 280.161C188.212 280.047 185.688 278.784 178.344 280.506C174.327 281.424 168.36 286.014 168.36 286.014"
          stroke="black" stroke-width="2.29505" stroke-miterlimit="10" stroke-linecap="round" stroke-linejoin="round"/>
    <path d="M190.048 288.653C190.048 288.653 184.196 290.719 180.639 295.079C177.999 298.292 177.999 301.964 177.311 307.014C176.737 311.489 179.606 314.243 182.934 309.538"
          stroke="black" stroke-width="2.29505" stroke-miterlimit="10" stroke-linecap="round" stroke-linejoin="round"/>
    <path d="M197.163 292.669C197.163 292.669 190.966 295.538 189.015 298.178C187.065 300.702 181.786 310.571 183.507 312.407C186.606 315.735 194.065 305.981 194.065 305.981"
          stroke="black" stroke-width="2.29505" stroke-miterlimit="10" stroke-linecap="round" stroke-linejoin="round"/>
    <path d="M205.311 296.801C205.311 296.801 193.491 302.882 193.376 308.276C193.262 313.669 205.425 303.686 209.901 302.194C214.261 300.817 221.261 302.882 228.72 297.604C234.228 293.702 236.294 292.669 236.294 292.669"
          stroke="black" stroke-width="2.29505" stroke-miterlimit="10" stroke-linecap="round" stroke-linejoin="round"/>
    <path d="M271.752 328.243L241.917 348.669C241.113 349.243 241.458 350.39 242.49 350.39H253.621C253.851 350.39 253.966 350.275 254.195 350.275L284.031 329.849C284.834 329.276 284.49 328.128 283.457 328.128L272.326 328.013C272.097 328.128 271.867 328.128 271.752 328.243Z"
          fill="#FFE843" stroke="#AAAAAA" stroke-width="2.29505" stroke-miterlimit="10" stroke-linecap="round"
          stroke-linejoin="round"/>
    <path d="M294.473 329.391L272.9 344.538C272.096 345.112 272.555 346.259 273.473 346.259L285.637 346.489C285.867 346.489 286.096 346.374 286.211 346.259L306.866 330.882C307.555 330.309 307.211 329.161 306.293 329.161L295.047 329.046C294.817 329.161 294.703 329.276 294.473 329.391Z"
          fill="#FF4560" stroke="#FF4560" stroke-width="2.29505" stroke-miterlimit="10" stroke-linecap="round"
          stroke-linejoin="round"/>
    <path d="M318.686 329.849L290.801 350.275C289.998 350.849 290.457 351.997 291.375 351.997H304.227C304.456 351.997 304.686 351.882 304.801 351.767L331.194 331.341C331.882 330.767 331.538 329.62 330.62 329.62L319.26 329.505C319.03 329.62 318.915 329.735 318.686 329.849Z"
          fill="#FFE843" stroke="#FFE843" stroke-width="2.29505" stroke-miterlimit="10" stroke-linecap="round"
          stroke-linejoin="round"/>
    <path d="M279.326 321.243L347.948 323.309C348.866 323.309 349.211 324.456 348.522 325.03L311.801 356.013"
          stroke="black" stroke-width="2.29505" stroke-miterlimit="10" stroke-linecap="round" stroke-linejoin="round"/>
    <path d="M358.62 339.03L391.095 340.292" stroke="black" stroke-width="2.29505" stroke-miterlimit="10"
          stroke-linecap="round" stroke-linejoin="round"/>
    <path d="M377.899 330.308L404.521 330.882" stroke="black" stroke-width="2.29505" stroke-miterlimit="10"
          stroke-linecap="round" stroke-linejoin="round"/>
    <path d="M352.653 118.705C344.964 122.721 336.128 127.196 335.21 127.541C333.489 128.229 355.292 93.6885 370.784 82.787C372.735 81.41 374.571 80.2624 376.521 79.3444"
          stroke="black" stroke-width="2.29505" stroke-miterlimit="10" stroke-linecap="round" stroke-linejoin="round"/>
    <path d="M368.259 126.278C366.079 140.967 366.882 159.901 366.882 163.229C366.882 163.229 364.817 185.95 401.308 176.769C409.57 174.704 419.439 166.442 419.783 159.327C420.013 152.212 418.406 112.967 418.406 112.967C430.341 114 435.275 97.4753 427.242 94.2622C424.603 93.2294 422.193 93.5737 420.128 94.6064"
          stroke="black" stroke-width="2.29505" stroke-miterlimit="10" stroke-linecap="round" stroke-linejoin="round"/>
    <path d="M422.308 104.934C422.308 104.934 420.242 104.705 417.947 108.147" stroke="black" stroke-width="2.29505"
          stroke-miterlimit="10" stroke-linecap="round" stroke-linejoin="round"/>
    <path d="M279.326 267.883C274.392 260.998 284.26 260.883 284.26 260.883C284.26 260.883 300.785 194.212 318.686 174.704C335.096 156.917 360.227 159.442 360.227 159.442C360.227 159.442 360.456 151.639 366.653 156.458"
          stroke="black" stroke-width="2.29505" stroke-miterlimit="10" stroke-linecap="round" stroke-linejoin="round"/>
    <path d="M415.078 279.473C414.504 277.293 413.93 274.424 413.357 270.637C411.75 259.621 411.52 256.178 407.619 256.178C403.717 256.178 400.734 265.473 398.898 270.522C397.062 275.572 399.471 283.49 407.963 266.85"
          stroke="black" stroke-width="2.29505" stroke-miterlimit="10" stroke-linecap="round" stroke-linejoin="round"/>
    <path d="M405.094 257.555C405.094 257.555 404.521 252.277 400.963 250.785C397.406 249.178 394.422 250.9 391.898 256.178C389.373 261.457 385.013 272.932 387.193 274.654C389.373 276.375 393.734 272.129 400.389 258.818"
          stroke="black" stroke-width="2.29505" stroke-miterlimit="10" stroke-linecap="round" stroke-linejoin="round"/>
    <path d="M393.619 253.31C393.619 253.31 391.439 249.867 388.111 251.015C384.669 252.277 382.374 260.539 380.996 267.654C379.619 274.768 383.406 275.457 387.308 269.031"
          stroke="black" stroke-width="2.29505" stroke-miterlimit="10" stroke-linecap="round" stroke-linejoin="round"/>
    <path d="M385.472 253.539C385.472 253.539 383.75 246.654 381.455 241.605C379.16 236.556 372.734 236.9 370.554 239.769C367.57 243.67 365.046 260.539 368.718 261.457C373.193 262.604 375.488 253.08 376.75 246.195"
          stroke="black" stroke-width="2.29505" stroke-miterlimit="10" stroke-linecap="round" stroke-linejoin="round"/>
    <path d="M375.029 252.965C375.029 252.965 378.242 260.424 377.783 269.375C377.439 276.604 376.406 278.44 373.767 279.244C371.243 280.047 358.505 274.309 354.948 278.899C351.39 283.375 355.751 286.932 363.669 287.965C371.587 288.883 374.57 291.637 379.16 294.506C383.865 297.26 388.8 301.62 399.013 298.752"
          stroke="black" stroke-width="2.29505" stroke-miterlimit="10" stroke-linecap="round" stroke-linejoin="round"/>
    <path d="M420.127 94.7213C420.013 94.7213 420.013 94.7213 420.127 94.7213C415.996 96.6721 413.472 101.147 413.472 101.147C396.144 104.361 401.882 76.1314 401.882 76.1314C401.882 76.1314 389.947 72.9183 376.636 79.4592C376.062 79.6887 379.39 65.1151 392.931 63.7381C406.472 62.4758 409.226 70.738 411.865 69.5905C414.505 68.5577 418.062 70.8528 419.898 79.3445C421.504 87.7214 420.357 94.1476 420.127 94.7213Z"
          fill="black" stroke="black" stroke-width="2.29505" stroke-miterlimit="10" stroke-linecap="round"
          stroke-linejoin="round"/>
    <path d="M373.652 113.77C373.652 113.77 374.57 118.36 373.767 119.049C372.964 119.737 372.62 115.377 373.079 114.344"
          fill="black"/>
    <path d="M373.652 113.77C373.652 113.77 374.57 118.36 373.767 119.049C372.964 119.737 372.62 115.377 373.079 114.344"
          stroke="black" stroke-width="2.29505" stroke-miterlimit="10" stroke-linecap="round" stroke-linejoin="round"/>
    <path d="M394.538 112.852C394.538 112.852 395.456 117.442 394.652 118.131C393.849 118.819 393.505 114.459 393.964 113.426"
          fill="black"/>
    <path d="M394.538 112.852C394.538 112.852 395.456 117.442 394.652 118.131C393.849 118.819 393.505 114.459 393.964 113.426"
          stroke="black" stroke-width="2.29505" stroke-miterlimit="10" stroke-linecap="round" stroke-linejoin="round"/>
    <path d="M407.619 103.442L413.587 101.377" stroke="black" stroke-width="2.29505" stroke-miterlimit="10"
          stroke-linecap="round" stroke-linejoin="round"/>
    <path d="M377.13 110.643C378.384 100.645 374.099 91.8752 367.559 91.0553C361.019 90.2354 354.702 97.6758 353.448 107.674C352.194 117.672 356.48 126.442 363.019 127.262C369.559 128.082 375.877 120.641 377.13 110.643Z"
          stroke="black" stroke-width="2.29505" stroke-miterlimit="10" stroke-linecap="round" stroke-linejoin="round"/>
    <path d="M408.639 110.161C409.272 100.104 404.095 91.5927 397.074 91.1503C390.053 90.7078 383.848 98.5017 383.214 108.558C382.581 118.615 387.758 127.126 394.779 127.569C401.8 128.011 408.005 120.217 408.639 110.161Z"
          stroke="black" stroke-width="2.29505" stroke-miterlimit="10" stroke-linecap="round" stroke-linejoin="round"/>
    <path d="M377.325 104.934C377.325 104.934 379.849 104.475 383.751 104.934" stroke="black" stroke-width="2.29505"
          stroke-miterlimit="10" stroke-linecap="round" stroke-linejoin="round"/>
    <path d="M394.767 141.081C394.652 144.409 393.619 148.081 391.554 149.688C386.964 153.245 383.751 148.77 384.439 144.983C385.128 141.77 391.898 140.737 394.767 141.081ZM394.767 141.081C394.996 136.95 393.849 133.393 391.554 135.458C387.537 139.36 382.144 137.524 382.144 137.524"
          stroke="black" stroke-width="2.29505" stroke-miterlimit="10" stroke-linecap="round" stroke-linejoin="round"/>
    <path d="M385.357 138.098C385.357 138.098 386.963 141.081 386.045 143.032C386.045 143.032 388.57 141.54 390.98 141.311C393.39 141.081 394.537 141.999 394.881 140.278C395.226 138.557 394.422 135.344 393.275 134.999C392.013 134.655 390.291 138.327 385.357 138.098Z"
          fill="black"/>
    <path d="M392.816 299.555C395.456 300.243 394.882 305.063 407.16 304.26C420.816 303.456 438.373 309.653 454.094 305.178C479.11 298.178 484.389 275.801 482.897 239.195C481.176 196.507 466.258 134.655 422.308 159.327"
          stroke="black" stroke-width="2.29505" stroke-miterlimit="10" stroke-linecap="round" stroke-linejoin="round"/>
    <path d="M413.357 270.637C416.226 270.178 419.439 269.145 424.947 268.113C441.357 265.129 449.504 265.244 450.652 270.063C451.799 274.883 441.701 273.276 438.603 254.686C437.34 247.113 433.783 212.228 435.16 210.507C436.537 208.9 432.865 213.375 429.996 211.31C427.127 209.244 432.98 202.933 432.98 202.933"
          stroke="black" stroke-width="2.29505" stroke-miterlimit="10" stroke-linecap="round" stroke-linejoin="round"/>
    <path d="M413.816 273.506C413.816 273.506 418.292 278.67 416.226 287.62C414.16 296.571 406.702 302.194 395.8 299.325"
          stroke="black" stroke-width="2.29505" stroke-miterlimit="10" stroke-linecap="round" stroke-linejoin="round"/>
    <path d="M331.653 202.933C331.653 202.933 326.375 206.835 328.899 211.08C331.424 215.326 323.965 267.768 323.965 267.768"
          stroke="black" stroke-width="2.29505" stroke-miterlimit="10" stroke-linecap="round" stroke-linejoin="round"/>
    <path d="M133.016 354.062C128.426 356.357 49.2469 337.423 25.6079 329.964C21.9358 328.817 19.1817 325.948 18.0342 322.276C12.8703 305.063 -0.555728 251.014 2.42784 250.211C5.98517 249.293 112.705 267.08 113.853 271.785C115.344 278.325 126.705 317.341 131.295 340.292C131.984 343.735 135.311 346.03 138.754 345.456C153.787 342.816 190.622 336.161 195.098 335.013"
          stroke="black" stroke-width="2.29505" stroke-miterlimit="10" stroke-linecap="round" stroke-linejoin="round"/>
    <path d="M133.017 354.062C133.017 354.062 197.278 338.915 201.524 336.276C205.77 333.751 149.197 324.915 130.033 321.128"
          stroke="black" stroke-width="2.29505" stroke-miterlimit="10" stroke-linecap="round" stroke-linejoin="round"/>
    <path d="M60.781 308.81C63.7735 308.264 65.4981 303.98 64.633 299.242C63.7679 294.504 60.6408 291.106 57.6483 291.652C54.6559 292.198 52.9313 296.482 53.7963 301.22C54.6614 305.958 57.7885 309.356 60.781 308.81Z"
          stroke="black" stroke-width="2.29505" stroke-miterlimit="10" stroke-linecap="round" stroke-linejoin="round"/>
    <path d="M109.836 273.965L127.853 345.456C129.115 350.276 133.82 353.259 138.639 352.226L151.721 349.472"
          stroke="black" stroke-width="2.29505" stroke-miterlimit="10" stroke-linecap="round" stroke-linejoin="round"/>
    <path d="M489.553 276.26H517.208" stroke="black" stroke-width="2.29505" stroke-miterlimit="10"
          stroke-linecap="round" stroke-linejoin="round"/>
    <path d="M354.718 163.343C354.718 163.343 360.226 193.523 369.521 197.654C375.374 200.294 383.521 183.654 386.62 183.54C389.833 183.425 396.718 199.835 401.308 200.179C405.898 200.523 418.865 188.474 425.98 165.868"
          stroke="black" stroke-width="2.29505" stroke-miterlimit="10" stroke-linecap="round" stroke-linejoin="round"/>
    <path d="M386.734 183.54C386.734 183.54 382.259 185.605 383.636 189.392C384.898 193.179 383.406 200.294 383.406 200.294"
          stroke="black" stroke-width="2.29505" stroke-miterlimit="10" stroke-linecap="round" stroke-linejoin="round"/>
    <path d="M389.259 198.113C388.226 198.113 387.308 197.195 387.308 196.163C387.308 195.13 388.226 194.212 389.259 194.212C390.292 194.212 391.21 195.13 391.21 196.163C391.21 197.195 390.406 198.113 389.259 198.113Z"
          fill="black"/>
    <path d="M410.603 69.5903C410.603 69.5903 409.226 61.4428 404.062 59.7216" stroke="black" stroke-width="2.29505"
          stroke-miterlimit="10" stroke-linecap="round" stroke-linejoin="round"/>
    <path d="M175.016 101.951C175.016 101.951 174.901 106.196 175.819 106.655C176.622 107.114 176.278 103.213 175.589 102.295"
          fill="black"/>
    <path d="M175.016 101.951C175.016 101.951 174.901 106.196 175.819 106.655C176.622 107.114 176.278 103.213 175.589 102.295"
          stroke="black" stroke-width="2.29505" stroke-miterlimit="10" stroke-linecap="round" stroke-linejoin="round"/>
    <path d="M160.098 103.213C160.098 103.213 159.983 107.459 160.901 107.918C161.704 108.377 161.36 104.475 160.672 103.557"
          fill="black"/>
    <path d="M160.098 103.213C160.098 103.213 159.983 107.459 160.901 107.918C161.704 108.377 161.36 104.475 160.672 103.557"
          stroke="black" stroke-width="2.29505" stroke-miterlimit="10" stroke-linecap="round" stroke-linejoin="round"/>
    <path d="M149.426 163.229C145.983 161.507 142.655 159.212 139.557 156.573C136.803 154.163 135.196 150.721 135.311 147.049C135.426 137.639 135.655 118.246 135.655 115.606"
          stroke="black" stroke-width="2.29505" stroke-miterlimit="10" stroke-linecap="round" stroke-linejoin="round"/>
    <path d="M170.311 68.6724C170.311 68.6724 196.245 89.2131 198.999 95.4097L186.262 105.623C186.262 105.623 189.819 129.606 192.229 142.688"
          stroke="black" stroke-width="2.29505" stroke-miterlimit="10" stroke-linecap="round" stroke-linejoin="round"/>
    <path d="M138.065 100.229C138.065 100.229 132.328 89.6722 124.984 96.0983C117.984 102.295 126.475 117.098 135.77 115.606"
          stroke="black" stroke-width="2.29505" stroke-miterlimit="10" stroke-linecap="round" stroke-linejoin="round"/>
    <path d="M130.033 104.59C130.033 104.59 134.049 104.246 136.689 109.639" stroke="black" stroke-width="2.29505"
          stroke-miterlimit="10" stroke-linecap="round" stroke-linejoin="round"/>
    <path d="M137.262 98.9673L137.721 83.1314C157.803 109.639 168.245 68.0988 168.245 68.0988C170.426 67.4103 179.721 76.361 179.721 76.361C179.721 76.361 178.344 68.7873 170.426 63.1645C155.967 52.9515 119.82 55.017 133.59 95.2952"
          fill="black"/>
    <path d="M137.262 98.9673L137.721 83.1314C157.803 109.639 168.245 68.0988 168.245 68.0988C170.426 67.4103 179.721 76.361 179.721 76.361C179.721 76.361 178.344 68.7873 170.426 63.1645C155.967 52.9515 119.82 55.017 133.59 95.2952"
          stroke="black" stroke-width="2.29505" stroke-miterlimit="10" stroke-linecap="round" stroke-linejoin="round"/>
    <path d="M192.114 136.606C192.114 136.606 195.442 149.229 183.507 157.261C177.196 161.622 168.245 161.507 162.852 159.212C155.508 155.999 152.754 150.491 148.278 148.426C144.491 146.704 140.016 148.655 143.344 152.442C145.754 155.196 146.901 159.098 149.082 162.196C155.049 170.343 155.852 181.704 153.786 192.376"
          stroke="black" stroke-width="2.29505" stroke-miterlimit="10" stroke-linecap="round" stroke-linejoin="round"/>
    <path d="M192.114 136.606C192.114 136.606 193.491 134.311 196.474 136.606C198.769 138.327 202.671 151.409 191.196 160.13"
          stroke="black" stroke-width="2.29505" stroke-miterlimit="10" stroke-linecap="round" stroke-linejoin="round"/>
    <path d="M200.491 146.704C200.491 146.704 203.819 146.934 202.557 154.278C201.524 160.36 198.77 163.573 191.999 167.13"
          stroke="black" stroke-width="2.29505" stroke-miterlimit="10" stroke-linecap="round" stroke-linejoin="round"/>
    <path d="M201.064 159.097C201.064 159.097 204.277 161.966 201.408 166.097C198.54 170.228 192.114 172.753 192.114 172.753"
          stroke="black" stroke-width="2.29505" stroke-miterlimit="10" stroke-linecap="round" stroke-linejoin="round"/>
    <path d="M202.212 164.721C204.392 163.803 207.146 159.098 208.524 159.786C211.851 161.507 204.278 172.179 194.753 177.458C187.639 181.36 184.425 184.917 181.557 197.655"
          stroke="black" stroke-width="2.29505" stroke-miterlimit="10" stroke-linecap="round" stroke-linejoin="round"/>
    <path d="M173.639 131.557C173.639 131.557 172.032 133.049 168.59 131.557C162.852 129.032 162.623 130.18 162.623 130.18"
          stroke="black" stroke-width="2.29505" stroke-miterlimit="10" stroke-linecap="round" stroke-linejoin="round"/>
    <path d="M217.703 274.539C217.703 274.539 215.523 270.522 220.458 267.883C225.392 265.244 234.916 249.063 239.162 247.342"
          stroke="black" stroke-width="2.29505" stroke-miterlimit="10" stroke-linecap="round" stroke-linejoin="round"/>
    <path d="M213.229 184.802C213.229 184.802 217.245 192.49 222.409 204.539C227.687 216.703 226.425 226.113 225.737 237.588C225.392 244.703 225.622 250.096 225.966 253.883C226.081 254.801 227.573 255.031 228.146 256.408C229.294 259.162 227.228 260.883 227.228 260.883"
          stroke="black" stroke-width="2.29505" stroke-miterlimit="10" stroke-linecap="round" stroke-linejoin="round"/>
    <path d="M263.261 54.9021C253.392 70.738 235.261 78.1969 218.622 71.197C216.556 73.6068 211.507 76.3609 211.622 75.5576C212.081 71.0822 212.081 69.4757 211.851 67.4101L211.507 67.1806C197.278 58.9184 191.081 35.9679 202.212 18.5255C210.819 5.09946 231.589 -4.08077 249.146 6.82073C266.703 17.837 274.277 37.3449 263.261 54.9021Z"
          fill="#FF4560" stroke="#FF4560" stroke-width="2.29505" stroke-miterlimit="10" stroke-linecap="round"
          stroke-linejoin="round"/>
    <path d="M231.704 17.6074C227.573 17.837 224.474 21.509 224.474 25.6401V36.8859C224.474 37.8039 225.278 38.6072 226.196 38.6072H228.032V35.1646H227.917V25.6401C227.917 23.4598 229.524 21.3943 231.704 21.1648C234.228 20.9353 236.409 22.8861 236.409 25.4106V34.4761C236.409 35.0498 236.868 35.5088 237.441 35.5088H238.818C239.392 35.5088 239.851 35.0498 239.851 34.4761V25.4106C239.966 20.8205 236.179 17.2632 231.704 17.6074Z"
          fill="black"/>
    <path d="M242.72 34.7055C242.72 33.558 241.687 32.5252 240.54 32.5252H223.786C222.638 32.5252 221.606 33.4432 221.606 34.7055L219.884 51.4594C219.884 52.6069 221.032 53.6397 222.409 53.6397H241.917C243.294 53.6397 244.441 52.7217 244.441 51.4594L242.72 34.7055ZM233.196 42.2792L233.655 46.1808C233.769 46.984 233.196 47.6726 232.278 47.6726H232.163C231.36 47.6726 230.786 46.984 230.786 46.2955L231.015 42.2792C230.097 41.8202 229.524 40.7874 229.753 39.6399C229.983 38.7218 230.671 38.1481 231.474 37.9186C233.081 37.5743 234.343 38.7218 234.343 40.2136C234.573 41.0169 233.999 41.8202 233.196 42.2792Z"
          fill="black"/>
    <path d="M371.358 62.4756L365.62 58.574" stroke="black" stroke-width="2.29505" stroke-miterlimit="10"
          stroke-linecap="round" stroke-linejoin="round"/>
    <path d="M383.292 53.6399C383.292 53.6399 382.374 47.7875 381.111 45.0334" stroke="black" stroke-width="2.29505"
          stroke-miterlimit="10" stroke-linecap="round" stroke-linejoin="round"/>
    <path d="M427.701 75.6723L432.177 71.8855" stroke="black" stroke-width="2.29505" stroke-miterlimit="10"
          stroke-linecap="round" stroke-linejoin="round"/>
    <path d="M128.885 152.442C129.459 153.245 121.311 155.081 111.902 159.786C111.902 159.786 100.197 154.966 112.705 146.36C125.213 137.754 103.869 144.754 99.3935 130.065C94.9181 115.377 115.574 112.279 107.541 105.049C99.5082 97.8197 107.197 88.2952 118.557 90.8198C125.787 92.4263 129.344 81.9838 130.606 75.0986C130.491 80.3773 130.95 88.1804 133.475 95.2951C131.18 93.8033 128.196 93.2296 124.869 96.2131C117.869 102.41 126.36 117.098 135.655 115.721C135.655 118.246 135.426 136.606 135.311 146.36C134.164 146.36 124.18 146.475 128.885 152.442Z"
          fill="black" stroke="black" stroke-width="2.29505" stroke-miterlimit="10" stroke-linecap="round"
          stroke-linejoin="round"/>
    <path d="M168.245 68.0986C168.245 68.0986 169.737 95.0654 155.164 90.7048" stroke="black" stroke-width="2.29505"
          stroke-miterlimit="10" stroke-linecap="round" stroke-linejoin="round"/>
</svg>
